<svg width="50" height="50" fill="none" xmlns="http://www.w3.org/2000/svg"><g clip-path="url(#a)"><rect width="5" height="12" rx="2.5" transform="scale(-1 1) rotate(-45 27.63 42.56)" fill="#4633B9"/><rect width="5" height="12" rx="2.5" transform="scale(-1 1) rotate(-45 27.63 42.56)" fill="#1767F9"/><rect width="5" height="12" rx="2.5" transform="scale(-1 1) rotate(-45 27.63 42.56)" fill="#4BB1BC"/><rect width="5" height="12" rx="2.5" transform="scale(-1 1) rotate(-45 27.63 42.56)" fill="url(#b)"/><rect width="5" height="12" rx="2.5" transform="scale(-1 1) rotate(-45 27.63 42.56)" fill="url(#c)" fill-opacity=".5"/><rect width="5" height="12" rx="2.5" transform="scale(-1 1) rotate(-45 27.63 42.56)" fill="url(#d)"/><path fill-rule="evenodd" clip-rule="evenodd" d="M12.64 34.64a3.73 3.73 0 0 0-5.28 0l-5.85 5.85a5 5 0 1 0 7.08 7.07l5.85-5.85a3.73 3.73 0 0 0 0-5.27l-1.8-1.8Z" fill="#4633B9"/><path fill-rule="evenodd" clip-rule="evenodd" d="M12.64 34.64a3.73 3.73 0 0 0-5.28 0l-5.85 5.85a5 5 0 1 0 7.08 7.07l5.85-5.85a3.73 3.73 0 0 0 0-5.27l-1.8-1.8Z" fill="#1767F9"/><path fill-rule="evenodd" clip-rule="evenodd" d="M12.64 34.64a3.73 3.73 0 0 0-5.28 0l-5.85 5.85a5 5 0 1 0 7.08 7.07l5.85-5.85a3.73 3.73 0 0 0 0-5.27l-1.8-1.8Z" fill="#4BB1BC"/><path fill-rule="evenodd" clip-rule="evenodd" d="M12.64 34.64a3.73 3.73 0 0 0-5.28 0l-5.85 5.85a5 5 0 1 0 7.08 7.07l5.85-5.85a3.73 3.73 0 0 0 0-5.27l-1.8-1.8Z" fill="url(#e)"/><path fill-rule="evenodd" clip-rule="evenodd" d="M12.64 34.64a3.73 3.73 0 0 0-5.28 0l-5.85 5.85a5 5 0 1 0 7.08 7.07l5.85-5.85a3.73 3.73 0 0 0 0-5.27l-1.8-1.8Z" fill="url(#f)" fill-opacity=".5"/><path fill-rule="evenodd" clip-rule="evenodd" d="M12.64 34.64a3.73 3.73 0 0 0-5.28 0l-5.85 5.85a5 5 0 1 0 7.08 7.07l5.85-5.85a3.73 3.73 0 0 0 0-5.27l-1.8-1.8Z" fill="url(#g)"/><path d="M33.78 3.43a17 17 0 1 0-7.56 33.14 17 17 0 0 0 7.56-33.14Z" fill="#4633B9"/><path d="M33.78 3.43a17 17 0 1 0-7.56 33.14 17 17 0 0 0 7.56-33.14Z" fill="#1767F9"/><path d="M33.78 3.43a17 17 0 1 0-7.56 33.14 17 17 0 0 0 7.56-33.14Z" fill="#4BB1BC"/><path d="M33.78 3.43a17 17 0 1 0-7.56 33.14 17 17 0 0 0 7.56-33.14Z" fill="url(#h)"/><path d="M33.78 3.43a17 17 0 1 0-7.56 33.14 17 17 0 0 0 7.56-33.14Z" fill="url(#i)" fill-opacity=".5"/><path d="M33.78 3.43a17 17 0 1 0-7.56 33.14 17 17 0 0 0 7.56-33.14Z" fill="url(#j)"/><path d="M32.95 8.78a11 11 0 1 0-4.9 21.44 11 11 0 0 0 4.9-21.44Z" stroke="#4633B9" stroke-width="3"/><path d="M32.95 8.78a11 11 0 1 0-4.9 21.44 11 11 0 0 0 4.9-21.44Z" stroke="#1767F9" stroke-width="3"/><path d="M32.95 8.78a11 11 0 1 0-4.9 21.44 11 11 0 0 0 4.9-21.44Z" stroke="#4BB1BC" stroke-width="3"/><path d="M32.95 8.78a11 11 0 1 0-4.9 21.44 11 11 0 0 0 4.9-21.44Z" stroke="url(#k)" stroke-width="3"/><path d="M32.95 8.78a11 11 0 1 0-4.9 21.44 11 11 0 0 0 4.9-21.44Z" stroke="url(#l)" stroke-opacity=".5" stroke-width="3"/><path d="M32.95 8.78a11 11 0 1 0-4.9 21.44 11 11 0 0 0 4.9-21.44Z" stroke="url(#m)" stroke-width="3"/><path d="M32.78 7.81a12.5 12.5 0 1 0-5.56 24.38A12.5 12.5 0 0 0 32.78 7.8Z" fill="#4633B9"/><path d="M32.78 7.81a12.5 12.5 0 1 0-5.56 24.38A12.5 12.5 0 0 0 32.78 7.8Z" fill="#1767F9"/><path d="M32.78 7.81a12.5 12.5 0 1 0-5.56 24.38A12.5 12.5 0 0 0 32.78 7.8Z" fill="#4BB1BC"/><path d="M32.78 7.81a12.5 12.5 0 1 0-5.56 24.38A12.5 12.5 0 0 0 32.78 7.8Z" fill="url(#n)"/><path d="M32.78 7.81a12.5 12.5 0 1 0-5.56 24.38A12.5 12.5 0 0 0 32.78 7.8Z" fill="url(#o)" fill-opacity=".5"/><path d="M32.78 7.81a12.5 12.5 0 1 0-5.56 24.38A12.5 12.5 0 0 0 32.78 7.8Z" fill="url(#p)"/><path d="M32.78 7.81a12.5 12.5 0 1 0-5.56 24.38A12.5 12.5 0 0 0 32.78 7.8Z" stroke="#000" stroke-width="3"/></g><defs><radialGradient id="b" cx="0" cy="0" r="1" gradientUnits="userSpaceOnUse" gradientTransform="rotate(101.98 -2.09 5.64) scale(6.42557 3.80733)"><stop stop-color="#FF8A1E"/><stop offset="1" stop-color="#EF4141"/></radialGradient><radialGradient id="c" cx="0" cy="0" r="1" gradientUnits="userSpaceOnUse" gradientTransform="rotate(-133.85 2.53 2.55) scale(7.92381 12.8151)"><stop stop-color="#FFA901"/><stop offset="1" stop-color="#FFC701" stop-opacity="0"/></radialGradient><radialGradient id="e" cx="0" cy="0" r="1" gradientUnits="userSpaceOnUse" gradientTransform="matrix(-8.18223 4.41102 -3.53856 -6.56385 5.37 45.12)"><stop stop-color="#FF8A1E"/><stop offset="1" stop-color="#EF4141"/></radialGradient><radialGradient id="f" cx="0" cy="0" r="1" gradientUnits="userSpaceOnUse" gradientTransform="matrix(-2.03901 -13.48744 20.85512 -3.15285 7.3 41.61)"><stop stop-color="#FFA901"/><stop offset="1" stop-color="#FFC701" stop-opacity="0"/></radialGradient><radialGradient id="h" cx="0" cy="0" r="1" gradientUnits="userSpaceOnUse" gradientTransform="matrix(9.29981 18.26751 -21.55902 10.97549 26.51 28.3)"><stop stop-color="#FF8A1E"/><stop offset="1" stop-color="#EF4141"/></radialGradient><radialGradient id="i" cx="0" cy="0" r="1" gradientUnits="userSpaceOnUse" gradientTransform="rotate(-23.45 64.37 -62.96) scale(41.7344 49.3202)"><stop stop-color="#FFA901"/><stop offset="1" stop-color="#FFC701" stop-opacity="0"/></radialGradient><radialGradient id="j" cx="0" cy="0" r="1" gradientUnits="userSpaceOnUse" gradientTransform="rotate(-10.51 117.1 -155.67) scale(45.7354 39.3672)"><stop stop-color="#FFDF35"/><stop offset="1" stop-color="#FF8A01" stop-opacity="0"/></radialGradient><radialGradient id="k" cx="0" cy="0" r="1" gradientUnits="userSpaceOnUse" gradientTransform="rotate(63.02 -6.92 35.59) scale(15.0724 17.7882)"><stop stop-color="#FF8A1E"/><stop offset="1" stop-color="#EF4141"/></radialGradient><radialGradient id="l" cx="0" cy="0" r="1" gradientUnits="userSpaceOnUse" gradientTransform="matrix(28.1529 -12.21092 14.43042 33.27009 30.77 19.8)"><stop stop-color="#FFA901"/><stop offset="1" stop-color="#FFC701" stop-opacity="0"/></radialGradient><radialGradient id="m" cx="0" cy="0" r="1" gradientUnits="userSpaceOnUse" gradientTransform="matrix(23.59222 -4.76594 4.10234 20.30728 30.77 18.58)"><stop stop-color="#FFDF35"/><stop offset="1" stop-color="#FF8A01" stop-opacity="0"/></radialGradient><radialGradient id="n" cx="0" cy="0" r="1" gradientUnits="userSpaceOnUse" gradientTransform="rotate(63.02 -8.15 35.52) scale(16.4579 19.4233)"><stop stop-color="#FF8A1E"/><stop offset="1" stop-color="#EF4141"/></radialGradient><radialGradient id="o" cx="0" cy="0" r="1" gradientUnits="userSpaceOnUse" gradientTransform="rotate(-23.45 64.14 -62.83) scale(33.5078 39.5983)"><stop stop-color="#FFA901"/><stop offset="1" stop-color="#FFC701" stop-opacity="0"/></radialGradient><linearGradient id="d" x1="4.16" y1="0" x2="-6.78" y2="8.56" gradientUnits="userSpaceOnUse"><stop stop-color="#FFDF35"/><stop offset="1" stop-color="#FF8A01" stop-opacity="0"/></linearGradient><linearGradient id="g" x1="15.88" y1="37.88" x2="-7.76" y2="39.06" gradientUnits="userSpaceOnUse"><stop stop-color="#FFDF35"/><stop offset="1" stop-color="#FF8A01" stop-opacity="0"/></linearGradient><linearGradient id="p" x1="26.5" y1="14.5" x2="34.67" y2="25.74" gradientUnits="userSpaceOnUse"><stop stop-color="#FFDF35"/><stop offset="1" stop-color="#FFDF35" stop-opacity="0"/></linearGradient><clipPath id="a"><path fill="#fff" transform="matrix(-1 0 0 1 50 0)" d="M0 0h50v50H0z"/></clipPath></defs></svg>