<svg width="275" height="33" fill="none" xmlns="http://www.w3.org/2000/svg"><path fill-rule="evenodd" clip-rule="evenodd" d="M106.798 3.21V5.56H115.265V.857H106.798V3.21Zm43.046 5.004c0 .03-.221.05-.561.05-.34 0-.561.02-.561.05 0 .028-.153.05-.357.05s-.357.021-.357.05c0 .027-.092.05-.204.05-.113 0-.204.022-.204.05 0 .027-.092.05-.204.05-.113 0-.204.022-.204.05 0 .027-.092.05-.204.05-.113 0-.204.022-.204.05 0 .028-.069.05-.153.05-.085 0-.153.023-.153.05 0 .028-.069.05-.153.05-.085 0-.153.023-.153.05 0 .028-.069.05-.153.05-.085 0-.153.023-.153.05 0 .028-.046.05-.102.05-.057 0-.102.023-.102.05 0 .028-.069.05-.153.05-.085 0-.153.023-.153.05 0 .028-.046.05-.102.05-.057 0-.102.023-.102.05 0 .028-.046.05-.102.05-.057 0-.102.023-.102.05 0 .028-.046.05-.102.05-.057 0-.102.023-.102.05 0 .028-.046.05-.102.05-.057 0-.102.023-.102.05 0 .028-.046.05-.102.05-.057 0-.102.023-.102.05 0 .028-.046.05-.102.05-.057 0-.102.023-.102.05 0 .028-.041.051-.091.051-.05 0-.124.045-.164.1-.041.055-.115.1-.165.1s-.09.023-.09.05c0 .028-.041.05-.091.05-.05 0-.124.045-.164.1-.041.055-.106.1-.144.1-.039 0-.135.068-.213.15-.079.083-.17.15-.203.15s-.149.09-.256.2c-.108.11-.221.201-.252.201-.072 0-1.636 1.534-1.636 1.605 0 .03-.091.14-.204.247-.112.105-.204.218-.204.25 0 .033-.068.123-.153.2-.084.077-.153.171-.153.21 0 .037-.045.1-.102.14-.056.04-.102.107-.102.15s-.045.11-.102.15c-.056.04-.102.113-.102.162s-.023.089-.051.089c-.028 0-.051.045-.051.1 0 .055-.023.1-.051.1-.028 0-.051.045-.051.1 0 .055-.023.1-.051.1-.028 0-.051.045-.051.1 0 .055-.023.1-.051.1-.028 0-.051.045-.051.1 0 .055-.023.1-.051.1-.028 0-.051.045-.051.1 0 .055-.023.1-.051.1-.028 0-.051.046-.051.1 0 .056-.023.1-.051.1-.028 0-.051.046-.051.1 0 .056-.023.1-.051.1-.028 0-.051.046-.051.1 0 .056-.023.101-.051.101-.028 0-.051.068-.051.15 0 .083-.023.15-.051.15-.028 0-.051.045-.051.1 0 .055-.023.1-.051.1-.028 0-.051.068-.051.15 0 .083-.023.15-.051.15-.028 0-.051.09-.051.2 0 .11-.023.201-.051.201-.028 0-.051.067-.051.15 0 .083-.023.15-.051.15-.028 0-.051.09-.051.2 0 .11-.023.2-.051.2-.028 0-.051.113-.051.25 0 .138-.023.251-.051.251-.028 0-.051.133-.051.3 0 .167-.022.3-.051.3-.03 0-.051.184-.051.45 0 .268-.02.451-.051.451-.032 0-.051.317-.051.851s.019.85.051.85c.031 0 .051.184.051.451s.021.45.051.45c.029 0 .051.134.051.3 0 .168.023.3.051.3.028 0 .051.113.051.251s.023.25.051.25c.028 0 .051.09.051.2 0 .11.023.2.051.2.028 0 .051.068.051.15 0 .083.023.15.051.15.028 0 .051.069.051.151 0 .083.023.15.051.15.028 0 .051.068.051.15 0 .083.023.15.051.15.028 0 .051.068.051.15 0 .083.023.15.051.15.028 0 .051.046.051.1 0 .056.023.1.051.1.028 0 .051.068.051.151 0 .082.023.15.051.15.028 0 .051.045.051.1 0 .055.023.1.051.1.028 0 .051.045.051.1 0 .055.023.1.051.1.028 0 .051.045.051.1 0 .056.023.1.051.1.028 0 .051.046.051.1 0 .056.023.1.051.1.028 0 .051.046.051.1 0 .056.023.1.051.1.028 0 .051.046.051.101 0 .055.023.1.051.1.028 0 .051.04.051.09 0 .048.046.12.102.16.057.04.102.108.102.15 0 .043.046.11.102.15.057.04.102.108.102.15 0 .044.046.111.102.15.057.04.102.104.102.142 0 .038.069.132.153.21.085.076.153.166.153.198 0 .033.092.146.204.252.113.105.204.216.204.246 0 .07 1.257 1.305 1.329 1.305.03 0 .167.112.303.25.137.138.276.25.308.25.033 0 .124.068.203.15.078.083.174.15.213.15.038 0 .103.046.144.1.04.056.109.1.153.1.043 0 .112.046.153.1.04.056.114.1.164.1s.091.023.091.05c0 .028.04.05.09.05.05 0 .124.046.165.1.04.056.114.101.164.101s.091.023.091.05c0 .028.045.05.102.05.056 0 .102.023.102.05 0 .028.045.05.102.05.056 0 .102.023.102.05 0 .028.045.05.102.05.056 0 .102.023.102.05 0 .028.045.05.102.05.056 0 .102.023.102.05 0 .028.068.05.153.05.084 0 .153.023.153.05 0 .028.045.05.102.05.056 0 .102.023.102.05 0 .028.068.05.153.05.084 0 .153.023.153.05 0 .028.068.05.153.05.084 0 .153.023.153.05 0 .028.068.05.153.05.084 0 .153.023.153.05 0 .028.068.05.153.05.084 0 .153.023.153.05 0 .028.068.051.153.051.084 0 .153.022.153.05 0 .027.114.05.255.05.14 0 .255.023.255.05 0 .028.114.05.255.05.14 0 .255.023.255.05 0 .029.153.05.357.05s.357.022.357.05c0 .033.527.05 1.479.05.952 0 1.479-.017 1.479-.05 0-.028.153-.05.357-.05s.357-.021.357-.05c0-.027.115-.05.255-.05s.255-.022.255-.05c0-.027.092-.05.204-.05.112 0 .204-.023.204-.05 0-.028.092-.05.204-.05.112 0 .204-.023.204-.05 0-.028.069-.05.153-.05.084 0 .153-.023.153-.05 0-.028.069-.05.153-.05.084 0 .153-.023.153-.05 0-.028.069-.05.153-.05.084 0 .153-.023.153-.05 0-.028.046-.05.102-.05.056 0 .102-.023.102-.05 0-.028.069-.05.153-.05.084 0 .153-.023.153-.05 0-.028.046-.05.102-.05.056 0 .102-.023.102-.05 0-.028.046-.05.102-.05.056 0 .102-.023.102-.05 0-.028.046-.05.102-.05.056 0 .102-.023.102-.05 0-.028.046-.05.102-.05.056 0 .102-.023.102-.05 0-.028.046-.05.102-.05.056 0 .102-.023.102-.05 0-.028.036-.051.08-.051.098 0 .226-.119.226-.21 0-.038-.046-.1-.102-.14-.056-.04-.102-.113-.102-.161 0-.05-.023-.09-.051-.09-.028 0-.051-.045-.051-.1 0-.055-.023-.1-.051-.1-.028 0-.051-.04-.051-.089 0-.049-.046-.121-.102-.16-.056-.04-.102-.113-.102-.162s-.023-.09-.051-.09c-.028 0-.051-.044-.051-.1 0-.054-.023-.1-.051-.1-.028 0-.051-.04-.051-.088 0-.05-.046-.122-.102-.161-.056-.04-.102-.113-.102-.162s-.023-.089-.051-.089c-.028 0-.051-.04-.051-.089 0-.049-.046-.121-.102-.16-.056-.04-.102-.113-.102-.162s-.023-.09-.051-.09c-.028 0-.051-.044-.051-.1 0-.054-.023-.1-.051-.1-.028 0-.051-.04-.051-.088 0-.05-.046-.122-.102-.161-.056-.04-.102-.113-.102-.162s-.023-.089-.051-.089c-.028 0-.051-.045-.051-.1 0-.055-.023-.1-.051-.1-.028 0-.051-.04-.051-.089 0-.049-.046-.121-.102-.161-.056-.04-.102-.112-.102-.161 0-.05-.023-.09-.051-.09-.028 0-.051-.035-.051-.078a.253.253 0 0 0-.073-.15c-.083-.081-.335-.097-.335-.021 0 .027-.046.05-.102.05-.056 0-.102.022-.102.05 0 .027-.046.05-.102.05-.056 0-.102.022-.102.05 0 .027-.046.05-.102.05-.056 0-.102.022-.102.05 0 .027-.046.05-.102.05-.056 0-.102.022-.102.05 0 .027-.069.05-.153.05-.084 0-.153.022-.153.05 0 .028-.069.05-.153.05-.084 0-.153.023-.153.05 0 .028-.092.05-.204.05-.112 0-.204.023-.204.05 0 .028-.115.05-.255.05s-.255.023-.255.05c0 .03-.204.05-.51.05-.306 0-.51.02-.51.05 0 .028-.136.05-.306.05-.17 0-.306-.022-.306-.05 0-.03-.187-.05-.459-.05s-.459-.02-.459-.05c0-.027-.115-.05-.255-.05-.141 0-.255-.022-.255-.05 0-.027-.092-.05-.204-.05-.113 0-.204-.022-.204-.05 0-.027-.069-.05-.153-.05-.084 0-.153-.022-.153-.05 0-.027-.069-.05-.153-.05-.085 0-.153-.023-.153-.05 0-.028-.069-.05-.153-.05-.085 0-.153-.023-.153-.05 0-.028-.046-.05-.102-.05-.056 0-.102-.023-.102-.05 0-.028-.046-.05-.102-.05-.056 0-.102-.023-.102-.05 0-.028-.046-.05-.102-.05-.056 0-.102-.023-.102-.05 0-.028-.041-.05-.091-.05-.05 0-.124-.046-.164-.1-.041-.056-.11-.1-.153-.1-.044 0-.113-.046-.153-.1-.041-.056-.106-.1-.144-.1-.039 0-.135-.068-.213-.15-.079-.084-.169-.151-.2-.151-.079 0-1.33-1.236-1.33-1.315 0-.035-.046-.097-.102-.136-.057-.04-.102-.108-.102-.15 0-.043-.046-.11-.102-.15-.057-.04-.102-.108-.102-.15 0-.044-.046-.111-.102-.15-.057-.04-.102-.113-.102-.162s-.023-.089-.051-.089c-.029 0-.051-.045-.051-.1 0-.055-.023-.1-.051-.1-.029 0-.051-.045-.051-.1 0-.055-.023-.1-.051-.1-.029 0-.051-.045-.051-.1 0-.056-.023-.1-.051-.1-.029 0-.051-.046-.051-.1 0-.056-.023-.1-.051-.1-.029 0-.051-.068-.051-.15 0-.083-.023-.15-.051-.15-.029 0-.051-.069-.051-.151 0-.083-.023-.15-.051-.15-.029 0-.051-.068-.051-.15 0-.083-.023-.15-.051-.15-.029 0-.052-.113-.052-.25 0-.138-.022-.25-.05-.25-.029 0-.052-.134-.052-.301 0-.167-.022-.3-.05-.3-.032 0-.052-.317-.052-.851s.02-.85.052-.85c.028 0 .05-.134.05-.301 0-.167.023-.3.052-.3.028 0 .05-.113.05-.25 0-.138.023-.25.052-.25.028 0 .051-.068.051-.15 0-.083.022-.15.051-.15.028 0 .051-.069.051-.151 0-.083.022-.15.051-.15.028 0 .051-.068.051-.15 0-.083.022-.15.051-.15.028 0 .051-.045.051-.1 0-.056.022-.1.051-.1.028 0 .051-.063.051-.14 0-.081.042-.168.102-.21.056-.04.102-.113.102-.162s.022-.09.051-.09c.028 0 .051-.044.051-.1 0-.054.022-.1.051-.1.028 0 .051-.04.051-.088 0-.05.045-.122.102-.162.056-.04.102-.107.102-.15s.045-.11.102-.15c.056-.04.102-.102.102-.14 0-.036.114-.176.255-.31.14-.134.255-.268.255-.298 0-.072.439-.503.512-.503.031 0 .145-.09.253-.2.107-.11.223-.2.256-.2s.124-.068.203-.15c.078-.083.174-.15.213-.15.038 0 .103-.045.144-.1.04-.056.114-.1.164-.1s.091-.023.091-.05c0-.028.046-.05.102-.05.056 0 .102-.023.102-.05 0-.028.046-.05.102-.05.056 0 .102-.023.102-.05 0-.028.046-.05.102-.05.056 0 .102-.023.102-.05 0-.028.046-.05.102-.05.056 0 .102-.023.102-.05 0-.028.046-.05.102-.05.056 0 .102-.024.102-.051 0-.027.068-.05.153-.05.084 0 .153-.023.153-.05 0-.028.068-.05.153-.05.084 0 .153-.023.153-.05 0-.028.091-.05.204-.05.112 0 .204-.023.204-.05 0-.028.091-.05.204-.05.112 0 .204-.023.204-.05 0-.029.153-.05.357-.05s.357-.022.357-.05c0-.031.272-.05.714-.05.442 0 .714.019.714.05 0 .028.153.05.357.05s.357.021.357.05c0 .027.115.05.255.05s.255.022.255.05c0 .027.092.05.204.05.112 0 .204.022.204.05 0 .027.069.05.153.05.084 0 .153.022.153.05 0 .027.046.05.102.05.056 0 .102.023.102.05 0 .027.069.05.153.05.084 0 .153.023.153.05 0 .028.046.05.102.05.056 0 .102.023.102.05 0 .028.046.05.102.05.056 0 .102.023.102.05 0 .028.046.05.102.05.056 0 .102.023.102.05 0 .075.149.06.233-.021a.253.253 0 0 0 .073-.15c0-.043.023-.079.051-.079.028 0 .051-.045.051-.1 0-.055.023-.1.051-.1.028 0 .051-.04.051-.09 0-.048.046-.12.102-.16.056-.04.102-.112.102-.161 0-.05.023-.09.051-.09.028 0 .051-.045.051-.1 0-.055.023-.1.051-.1.028 0 .051-.04.051-.089 0-.049.046-.121.102-.16.056-.04.102-.113.102-.162s.023-.089.051-.089c.028 0 .051-.04.051-.09 0-.048.046-.12.102-.16.056-.04.102-.112.102-.161 0-.05.023-.09.051-.09.028 0 .051-.044.051-.1 0-.055.023-.1.051-.1.028 0 .051-.04.051-.089 0-.049.046-.121.102-.16.056-.04.102-.113.102-.162s.023-.089.051-.089c.028 0 .051-.045.051-.1 0-.055.023-.1.051-.1.028 0 .051-.04.051-.09 0-.048.046-.12.102-.16.056-.04.102-.113.102-.162s.023-.089.051-.089c.028 0 .051-.04.051-.089 0-.049.046-.121.102-.16.056-.04.102-.103.102-.14 0-.09-.233-.311-.329-.311-.044 0-.079-.023-.079-.05 0-.028-.046-.05-.102-.05-.056 0-.102-.023-.102-.05 0-.028-.046-.05-.102-.05-.056 0-.102-.023-.102-.05 0-.028-.046-.05-.102-.05-.056 0-.102-.023-.102-.05 0-.028-.069-.05-.153-.05-.084 0-.153-.023-.153-.05 0-.028-.046-.05-.102-.05-.056 0-.102-.023-.102-.05 0-.028-.069-.05-.153-.05-.084 0-.153-.023-.153-.05 0-.028-.046-.05-.102-.05-.056 0-.102-.023-.102-.05 0-.028-.069-.05-.153-.05-.084 0-.153-.023-.153-.05 0-.028-.069-.051-.153-.051-.084 0-.153-.022-.153-.05 0-.028-.092-.05-.204-.05-.112 0-.204-.023-.204-.05 0-.028-.092-.05-.204-.05-.112 0-.204-.023-.204-.05 0-.028-.115-.05-.255-.05s-.255-.023-.255-.05c0-.028-.136-.05-.306-.05-.17 0-.306-.023-.306-.05 0-.03-.238-.05-.612-.05s-.612-.02-.612-.05c0-.03-.204-.05-.51-.05-.306 0-.51.02-.51.05Zm117.507 0c0 .03-.238.05-.612.05s-.612.02-.612.05c0 .027-.136.05-.306.05-.17 0-.306.022-.306.05 0 .027-.115.05-.255.05s-.255.022-.255.05c0 .027-.092.05-.204.05-.112 0-.204.022-.204.05 0 .027-.092.05-.204.05-.112 0-.204.022-.204.05 0 .028-.069.05-.153.05-.084 0-.153.023-.153.05 0 .028-.069.05-.153.05-.084 0-.153.023-.153.05 0 .028-.069.05-.153.05-.084 0-.153.023-.153.05 0 .028-.046.05-.102.05-.056 0-.102.023-.102.05 0 .028-.069.05-.153.05-.084 0-.153.023-.153.05 0 .028-.046.05-.102.05-.056 0-.102.023-.102.05 0 .028-.046.05-.102.05-.056 0-.102.023-.102.05 0 .028-.046.05-.102.05-.056 0-.102.023-.102.05 0 .028-.046.05-.102.05-.056 0-.102.023-.102.05 0 .028-.046.05-.102.05-.056 0-.102.023-.102.05 0 .028-.041.05-.091.05-.05 0-.124.046-.164.101-.04.055-.114.1-.164.1s-.091.023-.091.05c0 .028-.041.05-.091.05-.05 0-.124.045-.164.1-.04.055-.109.1-.153.1s-.113.045-.153.1c-.04.055-.105.1-.144.1-.038 0-.134.068-.213.15-.079.083-.17.15-.202.15-.033 0-.171.113-.308.25-.137.138-.273.251-.303.251-.072 0-1.227 1.134-1.227 1.204 0 .03-.115.163-.255.297-.14.134-.255.27-.255.302 0 .032-.069.122-.153.199-.084.077-.153.171-.153.209 0 .038-.046.101-.102.141-.056.04-.102.107-.102.15s-.046.11-.102.15c-.056.04-.102.113-.102.162s-.023.089-.051.089c-.028 0-.051.04-.051.089 0 .049-.046.121-.102.16-.056.04-.102.113-.102.162s-.023.089-.051.089c-.028 0-.051.045-.051.1 0 .055-.023.1-.051.1-.028 0-.051.045-.051.1 0 .055-.023.1-.051.1-.028 0-.051.045-.051.1 0 .055-.023.1-.051.1-.028 0-.051.046-.051.1 0 .056-.023.1-.051.1-.028 0-.051.068-.051.15 0 .083-.023.15-.051.15-.028 0-.051.046-.051.101 0 .055-.023.1-.051.1-.028 0-.051.068-.051.15 0 .083-.023.15-.051.15-.028 0-.051.045-.051.1 0 .055-.023.1-.051.1-.028 0-.051.068-.051.15 0 .083-.023.15-.051.15-.028 0-.051.09-.051.2 0 .111-.023.201-.051.201-.028 0-.051.068-.051.15 0 .083-.023.15-.051.15-.028 0-.051.09-.051.2 0 .11-.023.2-.051.2-.028 0-.051.113-.051.25 0 .139-.023.251-.051.251-.029 0-.051.15-.051.35 0 .2-.022.35-.051.35-.033 0-.051.551-.051 1.552 0 1 .018 1.551.051 1.551.028 0 .051.134.051.3 0 .167.022.3.051.3.028 0 .051.113.051.251s.023.25.051.25c.028 0 .051.113.051.25 0 .138.023.25.051.25.028 0 .051.068.051.15 0 .083.023.15.051.15.028 0 .051.068.051.151 0 .082.023.15.051.15.028 0 .051.068.051.15 0 .083.023.15.051.15.028 0 .051.068.051.15 0 .083.023.15.051.15.028 0 .051.068.051.15 0 .083.023.15.051.15.028 0 .051.046.051.1 0 .056.023.101.051.101.028 0 .051.045.051.1 0 .055.023.1.051.1.028 0 .051.068.051.15 0 .083.023.15.051.15.028 0 .051.045.051.1 0 .056.023.1.051.1.028 0 .051.04.051.09 0 .049.046.121.102.16.056.04.102.113.102.162s.023.089.051.089c.028 0 .051.045.051.1 0 .055.023.1.051.1.028 0 .051.04.051.09 0 .048.046.12.102.16.056.04.102.108.102.15 0 .043.046.111.102.15.056.04.102.108.102.15 0 .044.046.111.102.15.056.04.102.104.102.142 0 .038.069.132.153.21.084.076.153.165.153.197s.138.19.306.353c.168.162.306.319.306.348 0 .07.747.803.818.803.03 0 .19.135.355.3.165.165.327.3.359.3.033 0 .123.068.202.15.079.083.175.15.213.15.039 0 .104.045.144.1.04.055.109.1.153.1s.113.046.153.1c.04.056.109.1.153.1s.113.046.153.1c.04.056.114.1.164.1s.091.023.091.05c0 .028.046.05.102.05.056 0 .102.023.102.051 0 .027.046.05.102.05.056 0 .102.023.102.05 0 .028.046.05.102.05.056 0 .102.023.102.05 0 .028.046.05.102.05.056 0 .102.023.102.05 0 .028.046.05.102.05.056 0 .102.023.102.05 0 .028.046.05.102.05.056 0 .102.023.102.05 0 .028.046.05.102.05.056 0 .102.023.102.05 0 .028.046.05.102.05.056 0 .102.023.102.05 0 .028.069.05.153.05.084 0 .153.023.153.05 0 .028.069.05.153.05.084 0 .153.023.153.05 0 .028.069.05.153.05.084 0 .153.023.153.05 0 .028.069.05.153.05.084 0 .153.023.153.05 0 .028.092.051.204.051.112 0 .204.022.204.05 0 .027.092.05.204.05.112 0 .204.023.204.05 0 .028.115.05.255.05s.255.023.255.05c0 .029.153.05.357.05s.357.022.357.05c0 .033.527.05 1.479.05.952 0 1.479-.017 1.479-.05 0-.028.153-.05.357-.05s.357-.021.357-.05c0-.027.115-.05.255-.05.141 0 .255-.022.255-.05 0-.027.092-.05.204-.05.112 0 .204-.023.204-.05 0-.028.092-.05.204-.05.113 0 .204-.023.204-.05 0-.028.069-.05.153-.05.084 0 .153-.023.153-.05 0-.028.069-.05.153-.05.084 0 .153-.023.153-.05 0-.028.069-.05.153-.05.084 0 .153-.023.153-.05 0-.028.069-.05.153-.05.084 0 .153-.023.153-.05 0-.028.046-.05.102-.05.056 0 .102-.023.102-.05 0-.028.046-.05.102-.05.056 0 .102-.023.102-.05 0-.028.069-.05.153-.05.085 0 .153-.023.153-.05 0-.028.046-.05.102-.05.056 0 .102-.023.102-.05 0-.028.046-.05.102-.05.056 0 .102-.023.102-.05 0-.028.036-.05.079-.05.044 0 .135-.056.204-.124.127-.124.168-.277.074-.277-.028 0-.051-.045-.051-.1 0-.055-.023-.1-.051-.1-.028 0-.051-.04-.051-.09 0-.048-.046-.12-.102-.16-.056-.04-.102-.113-.102-.162s-.023-.089-.051-.089c-.028 0-.051-.045-.051-.1 0-.055-.023-.1-.051-.1-.028 0-.051-.04-.051-.089 0-.049-.046-.122-.102-.161-.056-.04-.102-.112-.102-.161 0-.05-.023-.09-.051-.09-.028 0-.051-.044-.051-.1 0-.055-.023-.1-.051-.1-.028 0-.051-.04-.051-.089 0-.049-.046-.121-.102-.16-.056-.04-.102-.113-.102-.162s-.023-.089-.051-.089c-.028 0-.051-.04-.051-.089 0-.049-.046-.122-.102-.161-.056-.04-.102-.112-.102-.161 0-.05-.023-.09-.051-.09-.028 0-.051-.044-.051-.1 0-.055-.023-.1-.051-.1-.028 0-.051-.04-.051-.089 0-.049-.046-.121-.102-.16-.056-.04-.102-.113-.102-.162s-.023-.089-.051-.089c-.028 0-.051-.045-.051-.1 0-.055-.023-.1-.051-.1-.028 0-.051-.04-.051-.09 0-.048-.046-.12-.102-.16-.056-.04-.102-.113-.102-.162 0-.117-.062-.112-.153.011-.04.056-.114.1-.164.1s-.091.023-.091.05c0 .028-.046.05-.102.05-.056 0-.102.023-.102.05 0 .028-.069.05-.153.05-.084 0-.153.023-.153.05 0 .028-.046.05-.102.05-.056 0-.102.023-.102.05 0 .028-.069.05-.153.05-.084 0-.153.023-.153.051 0 .028-.069.05-.153.05-.084 0-.153.023-.153.05 0 .028-.092.05-.204.05-.112 0-.204.023-.204.05 0 .028-.115.05-.255.05s-.255.023-.255.05c0 .03-.204.05-.51.05-.306 0-.51.02-.51.05 0 .028-.115.05-.255.05s-.255-.022-.255-.05c0-.03-.204-.05-.51-.05-.306 0-.51-.02-.51-.05 0-.027-.115-.05-.255-.05s-.255-.022-.255-.05c0-.027-.092-.05-.204-.05-.112 0-.204-.022-.204-.05 0-.027-.069-.05-.153-.05-.084 0-.153-.022-.153-.05 0-.027-.069-.05-.153-.05-.084 0-.153-.023-.153-.05 0-.028-.046-.05-.102-.05-.056 0-.102-.023-.102-.05 0-.028-.069-.05-.153-.05-.084 0-.153-.023-.153-.05 0-.028-.041-.05-.091-.05-.05 0-.123-.045-.164-.1-.04-.055-.114-.1-.164-.1s-.091-.023-.091-.05c0-.028-.041-.05-.091-.05-.05 0-.123-.046-.164-.1-.04-.056-.109-.1-.153-.1s-.112-.046-.153-.1c-.04-.056-.105-.1-.144-.1-.038 0-.134-.069-.213-.151-.079-.083-.168-.15-.2-.15-.074 0-1.024-.933-1.024-1.005 0-.03-.069-.119-.153-.196-.084-.077-.153-.167-.153-.2s-.069-.123-.153-.2c-.084-.078-.153-.177-.153-.22 0-.045-.023-.08-.051-.08-.028 0-.051-.04-.051-.09 0-.049-.046-.121-.102-.16-.056-.04-.102-.113-.102-.162 0-.05-.023-.09-.051-.09-.028 0-.051-.044-.051-.1 0-.054-.023-.1-.051-.1-.028 0-.051-.067-.051-.15 0-.082-.023-.15-.051-.15-.028 0-.051-.045-.051-.1 0-.055-.023-.1-.051-.1-.028 0-.051-.067-.051-.15 0-.082-.023-.15-.051-.15-.028 0-.051-.068-.051-.15 0-.083-.023-.15-.051-.15-.028 0-.051-.09-.051-.2 0-.11-.023-.2-.051-.2-.028 0-.051-.09-.051-.2 0-.11-.023-.2-.051-.2-.03 0-.051-.184-.051-.451s-.021-.45-.051-.45c-.03 0-.051-.184-.051-.451s.021-.45.051-.45c.03 0 .051-.184.051-.45 0-.268.021-.451.051-.451.028 0 .051-.113.051-.25 0-.138.023-.25.051-.25.028 0 .051-.068.051-.15 0-.083.023-.15.051-.15.028 0 .051-.068.051-.151 0-.082.023-.15.051-.15.028 0 .051-.068.051-.15 0-.083.023-.15.051-.15.028 0 .051-.068.051-.15 0-.083.023-.15.051-.15.028 0 .051-.046.051-.1 0-.056.023-.1.051-.1.028 0 .051-.046.051-.1 0-.056.023-.1.051-.1.028 0 .051-.046.051-.101 0-.055.023-.1.051-.1.028 0 .051-.04.051-.09 0-.048.046-.12.102-.16.056-.04.102-.108.102-.15 0-.043.046-.11.102-.15.056-.04.102-.104.102-.142 0-.038.069-.132.153-.209.084-.077.153-.165.153-.196 0-.072 1.155-1.205 1.229-1.205.031 0 .12-.068.199-.15.079-.083.175-.15.213-.15.039 0 .104-.045.144-.1.041-.055.109-.1.153-.1s.113-.046.153-.1c.041-.056.114-.1.164-.1s.091-.023.091-.05c0-.028.046-.05.102-.05.056 0 .102-.023.102-.05 0-.028.046-.05.102-.05.056 0 .102-.023.102-.05 0-.028.046-.05.102-.05.056 0 .102-.023.102-.05 0-.028.069-.05.153-.05.084 0 .153-.024.153-.051 0-.027.046-.05.102-.05.056 0 .102-.023.102-.05 0-.028.069-.05.153-.05.084 0 .153-.023.153-.05 0-.028.092-.05.204-.05.112 0 .204-.023.204-.05 0-.028.092-.05.204-.05.112 0 .204-.023.204-.05 0-.03.17-.05.408-.05.238 0 .408-.021.408-.05 0-.031.255-.05.663-.05.408 0 .663.019.663.05 0 .029.17.05.408.05.238 0 .408.02.408.05 0 .027.092.05.204.05.112 0 .204.022.204.05 0 .027.092.05.204.05.112 0 .204.022.204.05 0 .027.069.05.153.05.084 0 .153.022.153.05 0 .027.069.05.153.05.084 0 .153.023.153.05 0 .027.046.05.102.05.056 0 .102.023.102.05 0 .028.046.05.102.05.056 0 .102.023.102.05 0 .028.046.05.102.05.056 0 .102.023.102.05 0 .028.046.05.102.05.056 0 .102.023.102.05 0 .075.15.06.233-.021.041-.04.073-.102.073-.14 0-.036.046-.1.102-.139.056-.04.102-.112.102-.161s.023-.09.051-.09c.028 0 .051-.044.051-.1 0-.054.023-.1.051-.1.028 0 .051-.04.051-.088 0-.05.046-.122.102-.162.056-.04.102-.112.102-.16 0-.05.023-.09.051-.09.028 0 .051-.04.051-.089 0-.049.046-.121.102-.16.056-.04.102-.113.102-.162s.023-.09.051-.09c.028 0 .051-.044.051-.1 0-.054.023-.1.051-.1.028 0 .051-.04.051-.088 0-.05.046-.122.102-.162.056-.04.102-.112.102-.16 0-.05.023-.09.051-.09.028 0 .051-.045.051-.1 0-.055.023-.1.051-.1.028 0 .051-.04.051-.089 0-.049.046-.121.102-.161.056-.04.102-.112.102-.161 0-.05.023-.09.051-.09.028 0 .051-.04.051-.088 0-.05.046-.122.102-.162.056-.04.102-.112.102-.16 0-.05.023-.09.051-.09.028 0 .051-.045.051-.1 0-.055.023-.1.051-.1.028 0 .051-.067.051-.15 0-.117-.022-.15-.102-.15-.056 0-.102-.023-.102-.05 0-.028-.046-.05-.102-.05-.056 0-.102-.023-.102-.05 0-.028-.046-.05-.102-.05-.056 0-.102-.023-.102-.05 0-.028-.046-.05-.102-.05-.056 0-.102-.023-.102-.05 0-.028-.046-.05-.102-.05-.056 0-.102-.023-.102-.05 0-.028-.046-.05-.102-.05-.056 0-.102-.023-.102-.05 0-.028-.069-.05-.153-.05-.084 0-.153-.023-.153-.05 0-.028-.046-.05-.102-.05-.056 0-.102-.023-.102-.05 0-.028-.069-.05-.153-.05-.084 0-.153-.023-.153-.05 0-.028-.069-.05-.153-.05-.084 0-.153-.023-.153-.05 0-.028-.069-.051-.153-.051-.084 0-.153-.022-.153-.05 0-.028-.091-.05-.204-.05-.112 0-.204-.023-.204-.05 0-.028-.092-.05-.204-.05-.112 0-.204-.023-.204-.05 0-.028-.114-.05-.255-.05-.14 0-.255-.023-.255-.05 0-.028-.136-.05-.306-.05-.17 0-.306-.023-.306-.05 0-.03-.221-.05-.561-.05-.34 0-.561-.02-.561-.05 0-.03-.204-.05-.51-.05-.306 0-.51.02-.51.05Zm-52.633.1c0 .028-.153.05-.357.05s-.357.021-.357.05c0 .027-.115.05-.255.05-.141 0-.255.022-.255.05 0 .027-.069.05-.153.05-.085 0-.153.022-.153.05 0 .027-.092.05-.204.05-.113 0-.204.022-.204.05 0 .028-.069.05-.153.05-.085 0-.153.023-.153.05 0 .028-.046.05-.102.05-.057 0-.102.023-.102.05 0 .028-.069.05-.153.05-.085 0-.153.023-.153.05 0 .028-.046.05-.102.05-.057 0-.102.023-.102.05 0 .028-.046.05-.102.05-.057 0-.102.023-.102.05 0 .028-.046.05-.102.05-.057 0-.102.023-.102.05 0 .028-.046.05-.102.05-.095 0-.102-.033-.102-.45v-.45h-4.795v24.22h4.795v-.5c0-.3.02-.5.051-.5a.05.05 0 0 1 .051.05c0 .027.045.05.102.05.056 0 .102.022.102.05 0 .027.068.05.153.05.084 0 .153.022.153.05 0 .027.045.05.102.05.056 0 .102.022.102.05 0 .027.045.05.102.05.056 0 .102.022.102.05 0 .027.045.05.102.05.056 0 .102.022.102.05 0 .027.068.05.153.05.084 0 .153.022.153.05 0 .027.068.05.153.05.084 0 .153.022.153.05 0 .027.068.05.153.05.084 0 .153.022.153.05 0 .027.091.05.204.05.112 0 .204.022.204.05 0 .027.091.05.204.05.112 0 .204.023.204.05 0 .03.17.05.408.05.238 0 .408.021.408.05 0 .032.578.05 1.632.05 1.054 0 1.632-.017 1.632-.05 0-.028.153-.05.357-.05s.357-.021.357-.05c0-.027.092-.05.204-.05.112 0 .204-.023.204-.05 0-.028.092-.05.204-.05.112 0 .204-.023.204-.05 0-.028.069-.05.153-.05.084 0 .153-.023.153-.05 0-.028.046-.05.102-.05.056 0 .102-.023.102-.05 0-.028.069-.05.153-.05.084 0 .153-.023.153-.05 0-.028.046-.05.102-.05.056 0 .102-.023.102-.05 0-.028.046-.05.102-.05.056 0 .102-.023.102-.05 0-.028.041-.05.091-.05.049 0 .123-.046.164-.1.04-.056.109-.1.153-.1s.112-.046.153-.1c.04-.056.105-.1.144-.1.038 0 .134-.068.213-.151.078-.083.168-.15.199-.15.074 0 1.229-1.133 1.229-1.206 0-.03.069-.118.153-.195.084-.077.153-.177.153-.22 0-.045.023-.08.051-.08.028 0 .051-.04.051-.09 0-.049.046-.121.102-.16.056-.04.102-.113.102-.162s.023-.089.051-.089c.028 0 .051-.045.051-.1 0-.055.023-.1.051-.1.028 0 .051-.045.051-.1 0-.055.023-.1.051-.1.028 0 .051-.045.051-.1 0-.055.023-.1.051-.1.028 0 .051-.068.051-.15 0-.083.023-.15.051-.15.028 0 .051-.068.051-.15 0-.083.023-.151.051-.151.028 0 .051-.067.051-.15 0-.083.023-.15.051-.15.028 0 .051-.09.051-.2 0-.11.023-.2.051-.2.028 0 .051-.134.051-.3 0-.168.023-.301.051-.301.032 0 .051-.35.051-.95 0-.601-.019-.952-.051-.952-.028 0-.051-.112-.051-.25 0-.137-.023-.25-.051-.25-.028 0-.051-.09-.051-.2 0-.11-.023-.2-.051-.2-.028 0-.051-.09-.051-.2 0-.11-.023-.2-.051-.2-.028 0-.051-.068-.051-.15 0-.083-.023-.151-.051-.151-.028 0-.051-.045-.051-.1 0-.055-.023-.1-.051-.1-.028 0-.051-.045-.051-.1 0-.055-.023-.1-.051-.1-.028 0-.051-.045-.051-.1 0-.056-.023-.1-.051-.1-.028 0-.051-.046-.051-.1 0-.056-.023-.1-.051-.1-.028 0-.051-.046-.051-.1 0-.056-.023-.1-.051-.1-.028 0-.051-.04-.051-.09 0-.049-.046-.121-.102-.161-.056-.04-.102-.107-.102-.15s-.046-.11-.102-.15c-.056-.04-.102-.102-.102-.139 0-.036-.161-.222-.357-.412-.196-.19-.357-.38-.357-.423a.078.078 0 0 0-.078-.077c-.118 0-.534-.432-.534-.554 0-.059.069-.17.153-.247.084-.077.153-.171.153-.209 0-.038.046-.101.102-.141.056-.04.102-.112.102-.161 0-.05.023-.09.051-.09.028 0 .051-.044.051-.1 0-.055.023-.1.051-.1.028 0 .051-.045.051-.1 0-.055.023-.1.051-.1.028 0 .051-.045.051-.1 0-.055.023-.1.051-.1.028 0 .051-.045.051-.1 0-.055.023-.1.051-.1.028 0 .051-.068.051-.15 0-.083.023-.15.051-.15.028 0 .051-.045.051-.1 0-.055.023-.1.051-.1.028 0 .051-.068.051-.15 0-.083.023-.15.051-.15.028 0 .051-.09.051-.2 0-.11.023-.201.051-.201.028 0 .051-.113.051-.25 0-.138.023-.25.051-.25.032 0 .051-.4.051-1.101 0-.7-.019-1.101-.051-1.101-.028 0-.051-.113-.051-.25 0-.138-.023-.25-.051-.25-.028 0-.051-.09-.051-.2 0-.111-.023-.201-.051-.201-.028 0-.051-.068-.051-.15 0-.083-.023-.15-.051-.15-.028 0-.051-.068-.051-.15 0-.083-.023-.15-.051-.15-.028 0-.051-.068-.051-.15 0-.083-.023-.15-.051-.15-.028 0-.051-.046-.051-.1 0-.056-.023-.101-.051-.101-.028 0-.051-.045-.051-.1 0-.055-.023-.1-.051-.1-.028 0-.051-.045-.051-.1 0-.055-.023-.1-.051-.1-.028 0-.051-.04-.051-.09 0-.048-.046-.12-.102-.16-.056-.04-.102-.108-.102-.15 0-.043-.046-.111-.102-.15-.056-.04-.102-.104-.102-.142 0-.038-.069-.132-.153-.209-.084-.077-.153-.165-.153-.196 0-.072-.951-1.005-1.025-1.005-.031 0-.121-.068-.199-.15-.079-.083-.175-.15-.213-.15-.039 0-.104-.045-.144-.1-.041-.055-.109-.1-.153-.1s-.113-.046-.153-.1c-.041-.056-.115-.1-.164-.1-.05 0-.091-.023-.091-.05 0-.028-.046-.05-.102-.05-.056 0-.102-.023-.102-.05 0-.028-.046-.05-.102-.05-.056 0-.102-.023-.102-.05 0-.028-.046-.05-.102-.05-.056 0-.102-.023-.102-.05 0-.028-.069-.051-.153-.051-.084 0-.153-.022-.153-.05 0-.028-.046-.05-.102-.05-.056 0-.102-.023-.102-.05 0-.028-.092-.05-.204-.05-.112 0-.204-.023-.204-.05 0-.028-.069-.05-.153-.05-.084 0-.153-.023-.153-.05 0-.028-.136-.05-.306-.05-.17 0-.306-.023-.306-.05 0-.032-.476-.05-1.326-.05-.85 0-1.326.018-1.326.05Zm-210.229.2c0 .028-.136.05-.306.05-.17 0-.306.022-.306.05 0 .027-.068.05-.153.05-.084 0-.153.022-.153.05 0 .028-.068.05-.153.05-.084 0-.153.023-.153.05 0 .028-.046.05-.102.05-.056 0-.102.023-.102.05 0 .028-.046.05-.102.05-.056 0-.102.023-.102.05 0 .028-.046.05-.102.05-.056 0-.102.023-.102.05 0 .028-.034.05-.077.05-.1 0-1.249 1.127-1.249 1.226 0 .041-.023.075-.05.075-.029 0-.052.046-.052.1 0 .056-.023.1-.05.1-.029 0-.052.046-.052.1 0 .056-.023.1-.05.1-.029 0-.052.046-.052.1 0 .056-.023.101-.05.101-.029 0-.052.067-.052.15 0 .083-.023.15-.05.15-.029 0-.052.068-.052.15 0 .083-.023.15-.05.15-.03 0-.052.134-.052.3 0 .168-.022.301-.05.301-.035 0-.052 3.486-.052 10.359v10.358h4.845c3.197 0 4.846-.017 4.846-.05 0-.027.114-.05.255-.05.14 0 .255-.022.255-.05 0-.027.091-.05.204-.05.112 0 .204-.022.204-.05 0-.027.091-.05.204-.05.112 0 .204-.023.204-.05 0-.028.068-.05.153-.05.084 0 .153-.023.153-.05 0-.028.046-.05.102-.05.056 0 .102-.023.102-.05 0-.028.045-.05.102-.05.056 0 .102-.023.102-.05 0-.028.069-.05.153-.05.084 0 .153-.023.153-.05 0-.028.045-.05.102-.05.056 0 .102-.023.102-.05 0-.028.04-.05.09-.05.05 0 .124-.046.165-.1.04-.056.114-.1.164-.1s.09-.023.09-.05c0-.028.042-.05.091-.05.05 0 .124-.046.165-.1.04-.056.104-.1.142-.1.039 0 .158-.091.266-.201.107-.11.22-.2.251-.2.073 0 1.126-1.034 1.126-1.105 0-.031.069-.12.153-.196.084-.077.153-.172.153-.21 0-.037.046-.1.102-.14.056-.04.102-.108.102-.15 0-.044.046-.111.102-.15.056-.04.102-.113.102-.162s.023-.09.05-.09c.029 0 .052-.044.052-.1 0-.054.023-.1.05-.1.029 0 .052-.044.052-.1 0-.054.023-.1.05-.1.029 0 .052-.044.052-.1 0-.055.023-.1.05-.1.029 0 .052-.045.052-.1 0-.055.023-.1.05-.1.029 0 .052-.067.052-.15 0-.082.023-.15.05-.15.029 0 .052-.045.052-.1 0-.055.023-.1.05-.1.029 0 .052-.09.052-.2 0-.11.023-.2.05-.2.029 0 .052-.068.052-.15 0-.083.023-.15.05-.15.029 0 .052-.113.052-.25 0-.139.023-.251.05-.251.03 0 .052-.15.052-.35 0-.2.022-.35.05-.35.032 0 .052-.268.052-.701 0-.434-.02-.7-.051-.7-.03 0-.051-.168-.051-.401 0-.234-.022-.4-.051-.4-.028 0-.051-.09-.051-.2 0-.11-.023-.2-.051-.2-.028 0-.051-.091-.051-.201 0-.11-.023-.2-.051-.2-.028 0-.051-.068-.051-.15 0-.083-.023-.15-.051-.15-.028 0-.051-.068-.051-.15 0-.083-.023-.15-.051-.15-.028 0-.051-.046-.051-.1 0-.056-.023-.1-.051-.1-.028 0-.051-.069-.051-.151 0-.083-.023-.15-.051-.15-.028 0-.051-.045-.051-.1 0-.055-.023-.1-.051-.1-.028 0-.051-.045-.051-.1 0-.055-.023-.1-.051-.1-.028 0-.051-.04-.051-.09 0-.048-.046-.121-.102-.16-.056-.04-.102-.113-.102-.162s-.023-.089-.051-.089c-.028 0-.051-.036-.051-.08 0-.044-.07-.143-.153-.22-.084-.077-.153-.167-.153-.199s-.115-.167-.255-.302c-.14-.134-.255-.268-.255-.298 0-.071-.543-.602-.615-.602-.031 0-.145-.09-.252-.2-.108-.11-.223-.2-.256-.2s-.125-.068-.203-.15c-.079-.083-.18-.15-.225-.15-.045 0-.081-.023-.081-.051 0-.027-.041-.05-.091-.05-.05 0-.124-.045-.164-.1-.04-.055-.115-.1-.165-.1s-.09-.023-.09-.05c0-.028-.046-.05-.102-.05-.056 0-.102-.023-.102-.05 0-.028-.046-.05-.102-.05-.056 0-.102-.023-.102-.05 0-.028-.046-.05-.102-.05-.056 0-.102-.023-.102-.05 0-.028-.07-.05-.153-.05-.085 0-.153-.023-.153-.05 0-.028-.046-.05-.102-.05-.056 0-.102-.023-.102-.05 0-.028-.07-.05-.153-.05-.084 0-.153-.023-.153-.05 0-.028-.092-.05-.204-.05-.113 0-.204-.023-.204-.05 0-.028-.092-.05-.204-.05-.113 0-.204-.023-.204-.05 0-.03-.153-.05-.357-.05s-.357-.022-.357-.051c0-.031-.34-.05-.918-.05-.578 0-.918.018-.918.05 0 .029-.154.05-.358.05s-.357.021-.357.05c0 .028-.091.05-.204.05-.112 0-.204.023-.204.05 0 .028-.091.05-.204.05-.112 0-.204.023-.204.05 0 .028-.068.05-.153.05-.084 0-.153.023-.153.05 0 .028-.045.05-.102.05-.056 0-.102.023-.102.05 0 .028-.068.05-.153.05-.084 0-.153.023-.153.05 0 .028-.045.05-.102.05-.056 0-.102.023-.102.05a.05.05 0 0 1-.05.05c-.034 0-.052-.8-.052-2.301v-2.302H15.098V8.464H9.794c-3.503 0-5.305.017-5.305.05Zm22.441 0c0 .028-.136.05-.306.05-.17 0-.306.022-.306.05 0 .027-.069.05-.153.05-.084 0-.153.022-.153.05 0 .028-.069.05-.153.05-.084 0-.153.023-.153.05 0 .028-.046.05-.102.05-.056 0-.102.023-.102.05 0 .028-.046.05-.102.05-.056 0-.102.023-.102.05 0 .028-.04.05-.09.05-.05 0-.124.045-.165.1-.04.055-.103.1-.14.1-.085 0-1.033.93-1.033 1.015 0 .035-.046.097-.102.136-.056.04-.102.113-.102.162s-.023.089-.051.089c-.028 0-.051.045-.051.1 0 .055-.023.1-.051.1-.028 0-.051.045-.051.1 0 .055-.023.1-.051.1-.028 0-.051.067-.051.15 0 .083-.023.15-.051.15-.028 0-.051.09-.051.2 0 .11-.023.2-.051.2-.034 0-.051 2.986-.051 8.858s.017 8.857.051 8.857c.028 0 .051.068.051.15 0 .083.023.15.051.15.028 0 .051.068.051.15 0 .083.023.15.051.15.028 0 .051.068.051.151 0 .083.023.15.051.15.028 0 .051.04.051.09 0 .048.046.12.102.16.056.04.102.108.102.15 0 .043.046.11.102.15.056.04.102.102.102.138 0 .084.743.813.83.813.036 0 .099.045.139.1.04.055.11.1.153.1.044 0 .113.046.153.1.04.056.114.1.164.1s.091.023.091.05c0 .028.069.05.153.05.084 0 .153.023.153.05 0 .028.069.05.153.05.084 0 .153.023.153.05 0 .028.069.051.153.051.084 0 .153.022.153.05 0 .033 2.074.05 6.12.05h6.12V27.98H27.95v-5.304h9.792v-4.704H27.95v-4.704h10.404V8.464h-5.712c-3.774 0-5.712.017-5.712.05Zm25.807 0c0 .028-.136.05-.306.05-.17 0-.306.022-.306.05 0 .027-.092.05-.204.05-.112 0-.204.022-.204.05 0 .028-.046.05-.102.05-.056 0-.102.023-.102.05 0 .028-.07.05-.153.05-.084 0-.153.023-.153.05 0 .028-.041.05-.09.05-.05 0-.125.045-.165.1-.04.055-.11.1-.153.1-.044 0-.113.045-.153.1-.04.056-.104.1-.14.1-.086 0-.83.73-.83.814 0 .036-.045.098-.101.137-.056.04-.102.113-.102.162 0 .048-.023.088-.051.088-.028 0-.051.046-.051.1 0 .056-.023.1-.051.1-.028 0-.051.068-.051.15 0 .083-.023.151-.051.151-.028 0-.051.067-.051.15 0 .083-.023.15-.051.15-.029 0-.051.134-.051.3 0 .167-.023.3-.051.3-.03 0-.051.184-.051.451s-.021.45-.051.45c-.03 0-.051.167-.051.4 0 .234-.022.401-.051.401-.03 0-.051.184-.051.45 0 .267-.021.45-.051.45-.03 0-.051.168-.051.401 0 .234-.022.4-.051.4-.03 0-.051.184-.051.45 0 .268-.021.451-.051.451-.03 0-.051.167-.051.4 0 .234-.022.401-.051.401-.03 0-.051.167-.051.4 0 .234-.022.4-.051.4-.03 0-.051.167-.051.401s-.022.4-.051.4c-.03 0-.051.167-.051.4 0 .234-.022.401-.051.401-.03 0-.051.167-.051.4 0 .234-.022.4-.051.4-.03 0-.051.167-.051.401 0 .233-.022.4-.051.4-.03 0-.051.15-.051.35 0 .2-.022.35-.051.35-.03 0-.051.151-.051.351 0 .2-.022.35-.051.35-.03 0-.051.15-.051.35 0 .201-.022.351-.051.351-.029 0-.051.134-.051.3 0 .167-.023.3-.051.3-.029 0-.051.134-.051.3 0 .168-.023.301-.051.301-.028 0-.051.113-.051.25 0 .138-.023.25-.051.25-.028 0-.051.09-.051.2 0 .11-.023.2-.051.2-.028 0-.051.09-.051.201 0 .11-.023.2-.051.2-.028 0-.051.068-.051.15 0 .083-.023.15-.051.15-.028 0-.051.045-.051.1 0 .056-.023.1-.051.1-.028 0-.051.046-.051.1 0 .056-.023.1-.051.1-.028 0-.051.046-.051.1 0 .056-.023.1-.051.1-.028 0-.051.041-.051.09 0 .049-.046.122-.102.161-.056.04-.102.102-.102.137 0 .085-.54.614-.625.614-.037 0-.1.045-.14.1-.04.055-.115.1-.165.1s-.09.022-.09.05c0 .028-.046.05-.102.05-.056 0-.102.023-.102.05 0 .028-.07.05-.153.05-.084 0-.153.023-.153.05 0 .028-.07.05-.153.05-.085 0-.153.023-.153.05 0 .028-.115.05-.255.05h-.255v4.804h.306c.17 0 .306-.022.306-.05 0-.028.136-.05.306-.05.17 0 .306-.022.306-.05 0-.027.091-.05.204-.05.112 0 .204-.022.204-.05 0-.027.091-.05.204-.05.112 0 .204-.023.204-.05 0-.028.069-.05.153-.05.084 0 .153-.023.153-.05 0-.028.069-.05.153-.05.084 0 .153-.023.153-.05 0-.028.069-.05.153-.05.084 0 .153-.023.153-.05 0-.028.046-.05.102-.05.056 0 .102-.023.102-.05 0-.028.069-.05.153-.05.084 0 .153-.023.153-.05 0-.028.046-.05.102-.05.056 0 .102-.023.102-.05 0-.028.046-.05.102-.05.056 0 .102-.023.102-.05 0-.028.04-.05.09-.05.05 0 .124-.046.165-.1.04-.056.109-.1.153-.1.043 0 .112-.046.153-.1.04-.056.104-.101.143-.101.038 0 .157-.09.265-.2.108-.11.221-.2.252-.2.073 0 .615-.532.615-.604 0-.03.091-.141.204-.247.112-.106.204-.223.204-.26 0-.038.046-.1.102-.14.056-.04.102-.108.102-.15 0-.043.046-.11.102-.15.056-.04.102-.113.102-.162s.023-.089.05-.089c.029 0 .052-.045.052-.1 0-.055.023-.1.05-.1.029 0 .052-.045.052-.1 0-.055.023-.1.05-.1.029 0 .052-.045.052-.1 0-.055.023-.1.05-.1.029 0 .052-.068.052-.15 0-.083.023-.15.05-.15.029 0 .052-.046.052-.1 0-.056.023-.1.05-.1.029 0 .052-.068.052-.15 0-.083.023-.151.05-.151.029 0 .052-.067.052-.15 0-.083.023-.15.05-.15.029 0 .052-.068.052-.15 0-.083.023-.15.05-.15.029 0 .052-.09.052-.2 0-.11.023-.2.05-.2.029 0 .052-.068.052-.15 0-.084.023-.151.05-.151.029 0 .052-.113.052-.25 0-.138.023-.25.05-.25.029 0 .052-.09.052-.2 0-.11.023-.2.05-.2.029 0 .052-.113.052-.251s.023-.25.05-.25c.03 0 .052-.134.052-.3 0-.167.022-.3.05-.3.03 0 .052-.134.052-.301 0-.167.023-.3.05-.3.03 0 .052-.134.052-.3 0-.167.023-.3.05-.3.03 0 .052-.15.052-.351 0-.2.022-.35.05-.35.03 0 .052-.15.052-.35 0-.2.022-.35.05-.35.03 0 .052-.151.052-.351 0-.2.022-.35.05-.35.03 0 .052-.167.052-.4 0-.234.021-.401.05-.401.03 0 .052-.167.052-.4 0-.234.021-.4.05-.4.03 0 .052-.151.052-.351 0-.2.022-.35.05-.35.03 0 .052-.167.052-.4 0-.234.021-.401.05-.401.03 0 .052-.15.052-.35 0-.2.022-.35.05-.35.03 0 .052-.168.052-.401 0-.234.021-.4.05-.4.03 0 .052-.15.052-.35 0-.2.022-.35.05-.35.03 0 .052-.168.052-.401 0-.234.021-.4.05-.4.03 0 .052-.167.052-.4 0-.234.021-.401.05-.401.03 0 .052-.15.052-.35 0-.2.022-.35.05-.35.029 0 .052-.09.052-.201v-.2h4.794v19.416h4.896v-11.01c0-7.305-.017-11.008-.05-11.008-.029 0-.052-.113-.052-.25 0-.138-.023-.25-.05-.25-.029 0-.052-.068-.052-.15 0-.083-.023-.151-.05-.151-.029 0-.052-.04-.052-.09 0-.048-.046-.12-.102-.16-.056-.04-.102-.102-.102-.138 0-.085-.436-.513-.523-.513-.036 0-.1-.045-.14-.1-.04-.055-.114-.1-.164-.1s-.09-.022-.09-.05c0-.028-.07-.05-.154-.05-.084 0-.153-.023-.153-.05 0-.028-.092-.05-.204-.05-.112 0-.204-.023-.204-.05 0-.033-1.445-.05-4.233-.05-2.788 0-4.233.017-4.233.05Zm17.442 12.06v12.11h4.795v-.25c0-.138.022-.25.05-.25a.05.05 0 0 1 .052.05c0 .027.045.05.102.05.056 0 .102.022.102.05 0 .027.045.05.102.05.056 0 .102.022.102.05 0 .027.068.05.153.05.084 0 .153.022.153.05 0 .027.068.05.152.05.085 0 .154.022.154.05 0 .027.068.05.153.05.084 0 .153.023.153.05 0 .028.091.05.204.05.112 0 .204.023.204.05 0 .028.136.05.305.05.17 0 .307.022.307.05 0 .032.425.05 1.173.05s1.173-.018 1.173-.05c0-.028.136-.05.306-.05.17 0 .306-.022.306-.05 0-.027.092-.05.204-.05.112 0 .204-.022.204-.05 0-.027.069-.05.153-.05.084 0 .153-.023.153-.05 0-.028.069-.05.153-.05.084 0 .153-.023.153-.05 0-.028.046-.05.102-.05.056 0 .102-.023.102-.05 0-.028.069-.05.153-.05.084 0 .153-.023.153-.05 0-.028.046-.05.102-.05.056 0 .102-.023.102-.05 0-.028.046-.05.102-.05.056 0 .102-.023.102-.05 0-.028.046-.05.102-.05.056 0 .102-.023.102-.05 0-.028.04-.05.09-.05.05 0 .124-.046.165-.1.04-.056.109-.1.153-.1.043 0 .112-.046.153-.1.04-.056.105-.1.144-.1.038 0 .134-.068.213-.151.078-.083.168-.15.2-.15.073 0 1.33-1.233 1.33-1.306 0-.03.069-.118.153-.195.084-.078.153-.172.153-.21 0-.037.046-.101.102-.14.056-.04.102-.113.102-.162s.023-.089.05-.089c.029 0 .052-.04.052-.089 0-.049.046-.121.102-.161.056-.04.102-.112.102-.161 0-.05.023-.09.05-.09.029 0 .052-.044.052-.1 0-.054.023-.1.05-.1.029 0 .052-.067.052-.15 0-.082.023-.15.05-.15.029 0 .052-.045.052-.1 0-.055.023-.1.05-.1.029 0 .052-.067.052-.15 0-.083.023-.15.05-.15.029 0 .052-.068.052-.15 0-.083.023-.15.05-.15.029 0 .052-.068.052-.15 0-.083.023-.15.05-.15.029 0 .052-.09.052-.2 0-.11.023-.201.05-.201.03 0 .052-.15.052-.35 0-.2.022-.35.05-.35.033 0 .052-.35.052-.951 0-.6-.019-.951-.051-.951-.029 0-.051-.134-.051-.3 0-.167-.023-.3-.051-.3-.028 0-.051-.113-.051-.25 0-.139-.023-.251-.051-.251-.028 0-.051-.068-.051-.15 0-.083-.023-.15-.051-.15-.028 0-.051-.068-.051-.15 0-.083-.023-.15-.051-.15-.028 0-.051-.068-.051-.15 0-.083-.023-.15-.051-.15-.028 0-.051-.046-.051-.1 0-.056-.023-.101-.051-.101-.028 0-.051-.045-.051-.1 0-.055-.023-.1-.051-.1-.028 0-.051-.045-.051-.1 0-.055-.023-.1-.051-.1-.028 0-.051-.045-.051-.1 0-.055-.023-.1-.051-.1-.028 0-.051-.045-.051-.1 0-.056-.023-.1-.051-.1-.028 0-.051-.04-.051-.09 0-.049-.046-.121-.102-.16-.056-.04-.102-.108-.102-.151s-.046-.11-.102-.15c-.056-.04-.102-.103-.102-.141 0-.038-.07-.132-.153-.21-.084-.076-.153-.165-.153-.195 0-.073-1.053-1.106-1.127-1.106-.03 0-.12-.067-.2-.15-.078-.082-.174-.15-.212-.15-.04 0-.104-.045-.144-.1-.04-.055-.11-.1-.153-.1-.044 0-.113-.045-.153-.1-.04-.055-.115-.1-.165-.1s-.09-.023-.09-.05c0-.028-.046-.05-.102-.05-.056 0-.102-.023-.102-.05 0-.028-.046-.05-.102-.05-.056 0-.102-.023-.102-.05 0-.028-.046-.05-.102-.05-.056 0-.102-.023-.102-.05 0-.028-.046-.05-.102-.05-.056 0-.102-.023-.102-.05 0-.028-.046-.05-.102-.05-.056 0-.102-.023-.102-.05 0-.028-.07-.05-.153-.05-.084 0-.153-.023-.153-.05 0-.028-.07-.05-.153-.05-.084 0-.153-.023-.153-.05 0-.028-.092-.05-.204-.05-.112 0-.204-.023-.204-.05 0-.028-.092-.05-.204-.05-.113 0-.204-.023-.204-.05 0-.029-.136-.05-.306-.05-.17 0-.306-.023-.306-.051 0-.032-.357-.05-.97-.05-.611 0-.968.018-.968.05 0 .028-.136.05-.306.05-.17 0-.306.022-.306.05 0 .028-.115.05-.255.05s-.255.023-.255.05c0 .028-.07.05-.154.05-.084 0-.152.023-.152.05 0 .028-.07.05-.153.05-.085 0-.154.023-.154.05 0 .028-.068.05-.153.05-.084 0-.153.023-.153.05 0 .028-.045.05-.101.05-.057 0-.102.023-.102.05 0 .028-.07.05-.154.05-.084 0-.152.023-.152.05a.05.05 0 0 1-.051.05c-.034 0-.052-1.6-.052-4.703V8.464H70.18v12.11ZM89.012 8.539c-.051.056-.064 2.55-.064 12.108v12.037h4.896V20.645c0-10.366-.01-12.048-.073-12.11-.108-.106-4.664-.103-4.76.004Zm11.73 0c-.051.056-.064 2.55-.064 12.108v12.037h4.85l.125-.123c.069-.067.125-.152.125-.189 0-.036.046-.099.102-.138.057-.04.102-.108.102-.15 0-.043.046-.11.102-.15.057-.04.102-.108.102-.15 0-.044.046-.111.102-.15.057-.04.102-.108.102-.151s.046-.11.102-.15c.057-.04.102-.107.102-.15s.046-.11.102-.15c.057-.04.102-.108.102-.15 0-.043.046-.11.102-.15.057-.04.102-.108.102-.15 0-.044.046-.111.102-.15.057-.04.102-.108.102-.151s.046-.11.102-.15c.057-.04.102-.107.102-.15s.046-.11.102-.15c.057-.04.102-.108.102-.15 0-.043.046-.11.102-.15.057-.04.102-.108.102-.15 0-.044.046-.111.102-.15.057-.04.102-.108.102-.151s.046-.11.102-.15c.057-.04.102-.107.102-.15s.046-.11.102-.15c.057-.04.102-.108.102-.15 0-.043.046-.11.103-.15.056-.04.101-.108.101-.15 0-.044.046-.111.102-.15.057-.04.102-.108.102-.151s.046-.11.102-.15c.057-.04.102-.107.102-.15s.046-.11.103-.15c.056-.04.101-.108.101-.15 0-.043.046-.11.103-.15.056-.04.102-.108.102-.15 0-.044.045-.111.102-.15.056-.04.102-.108.102-.151s.045-.11.102-.15c.056-.04.102-.107.102-.15s.045-.11.102-.15c.056-.04.102-.108.102-.15 0-.043.045-.11.102-.15.056-.04.102-.108.102-.15 0-.044.045-.111.102-.15.056-.04.102-.108.102-.151s.045-.11.102-.15c.056-.04.102-.107.102-.15s.045-.11.102-.15c.056-.04.102-.108.102-.15 0-.043.045-.11.102-.15.056-.04.102-.108.102-.15 0-.044.045-.111.102-.15.056-.04.102-.108.102-.151s.045-.11.102-.15c.056-.04.102-.107.102-.15s.045-.11.102-.15c.056-.04.102-.108.102-.15 0-.043.045-.11.102-.15.056-.04.102-.108.102-.15 0-.044.045-.111.102-.15.056-.04.102-.108.102-.151s.045-.11.102-.15c.056-.04.102-.107.102-.15s.045-.11.102-.15c.056-.04.102-.108.102-.15 0-.043.045-.11.102-.15.056-.04.102-.108.102-.15 0-.044.046-.111.102-.15.056-.04.102-.108.102-.151s.046-.11.102-.15c.056-.04.102-.107.102-.15s.046-.11.102-.15c.056-.04.102-.108.102-.15 0-.043.046-.11.102-.15.056-.04.102-.108.102-.15 0-.044.046-.111.102-.15.056-.04.102-.108.102-.151s.046-.11.102-.15c.056-.04.102-.107.102-.15s.046-.11.102-.15c.056-.04.102-.108.102-.15 0-.043.046-.111.102-.15.056-.04.102-.108.102-.15 0-.044.046-.111.102-.15.056-.04.102-.108.102-.151s.046-.11.102-.15c.056-.04.102-.107.102-.15s.046-.11.102-.15c.056-.04.102-.108.102-.15 0-.043.046-.111.102-.15.056-.04.102-.108.102-.15 0-.044.046-.111.102-.15.056-.04.102-.113.102-.162s.023-.09.051-.09c.028 0 .051-.04.051-.088 0-.05.046-.122.102-.161.056-.04.102-.108.102-.15 0-.043.046-.11.102-.15.056-.04.102-.108.102-.15 0-.044.046-.111.102-.15.056-.04.102-.108.102-.15 0-.044.046-.111.102-.151.056-.04.102-.102.102-.139 0-.063.221-.311.278-.311.015 0 .028 3.625.028 8.056v8.057h4.794V8.464h-4.747l-.176.173c-.098.096-.177.203-.177.24 0 .036-.046.098-.102.137-.056.04-.102.107-.102.15s-.046.11-.102.15c-.056.04-.102.108-.102.15 0 .044-.046.111-.102.15-.056.04-.102.108-.102.15 0 .044-.046.111-.102.151-.056.04-.102.107-.102.15s-.046.11-.102.15c-.056.04-.102.107-.102.15s-.046.11-.102.15c-.056.04-.102.108-.102.15 0 .044-.046.111-.102.15-.056.04-.102.108-.102.15 0 .044-.046.111-.102.151-.056.04-.102.107-.102.15s-.046.11-.102.15c-.056.04-.102.107-.102.15s-.046.11-.102.15c-.056.04-.102.108-.102.15 0 .043-.046.111-.102.15-.056.04-.102.108-.102.15 0 .044-.046.111-.102.151-.056.04-.102.107-.102.15s-.046.11-.102.15c-.056.04-.102.107-.102.15s-.046.11-.102.15c-.056.04-.102.108-.102.15 0 .043-.046.111-.102.15-.056.04-.102.108-.102.15 0 .044-.046.111-.102.151-.056.04-.102.107-.102.15s-.046.11-.102.15c-.056.04-.102.107-.102.15s-.046.11-.102.15c-.056.04-.102.108-.102.15 0 .043-.046.111-.102.15-.057.04-.102.108-.102.15 0 .044-.046.111-.102.151-.057.04-.102.107-.102.15s-.046.11-.102.15c-.057.04-.102.107-.102.15s-.046.11-.102.15c-.057.04-.102.108-.102.15 0 .043-.046.111-.102.15-.057.04-.102.108-.102.15 0 .044-.046.111-.102.151-.057.04-.102.112-.102.161 0 .05-.023.09-.051.09-.028 0-.051.04-.051.088 0 .05-.046.122-.102.161-.057.04-.102.108-.102.15 0 .043-.046.111-.102.15-.057.04-.102.108-.102.15 0 .044-.046.111-.102.15-.057.04-.102.108-.102.151s-.046.11-.102.15c-.057.04-.102.107-.102.15s-.046.11-.102.15c-.057.04-.102.108-.102.15 0 .043-.046.111-.102.15-.057.04-.102.108-.102.15 0 .044-.046.111-.102.15-.057.04-.102.108-.102.151s-.046.11-.102.15c-.057.04-.102.107-.102.15s-.046.11-.102.15c-.057.04-.102.108-.102.15 0 .043-.046.111-.102.15-.057.04-.103.108-.103.15 0 .044-.045.111-.101.15-.057.04-.103.108-.103.151s-.045.11-.102.15c-.056.04-.102.107-.102.15s-.045.11-.102.15c-.056.04-.102.108-.102.15 0 .044-.045.111-.101.15-.057.04-.103.108-.103.15 0 .044-.045.111-.102.151-.056.04-.102.107-.102.15s-.045.11-.102.15c-.056.04-.102.107-.102.15s-.045.11-.102.15c-.056.04-.102.108-.102.15 0 .044-.045.111-.102.15-.056.04-.102.108-.102.15 0 .044-.045.111-.102.151-.056.04-.102.107-.102.15s-.045.11-.102.15c-.056.04-.102.107-.102.15s-.045.11-.102.15c-.056.04-.102.108-.102.15 0 .044-.045.111-.102.15-.056.04-.102.108-.102.15 0 .044-.045.111-.102.151-.056.04-.102.107-.102.15s-.045.11-.102.15c-.056.04-.102.107-.102.15s-.045.11-.102.15c-.056.04-.102.108-.102.15 0 .044-.045.111-.102.15-.056.04-.102.108-.102.15 0 .044-.045.111-.102.151-.056.04-.102.102-.102.14 0 .067-.119.21-.174.21-.016 0-.03-3.593-.03-7.985 0-6.854-.01-7.995-.072-8.057-.109-.106-4.665-.103-4.76.004Zm64.606-.025c0 .028-.136.05-.306.05-.17 0-.306.022-.306.05 0 .027-.092.05-.204.05-.112 0-.204.022-.204.05 0 .028-.046.05-.102.05-.056 0-.102.023-.102.05 0 .028-.069.05-.153.05-.084 0-.153.023-.153.05 0 .028-.041.05-.091.05-.05 0-.123.045-.164.1-.04.055-.109.1-.153.1s-.112.045-.153.1c-.04.056-.103.1-.14.1-.08 0-.727.627-.727.705 0 .03-.069.12-.153.196-.084.077-.153.176-.153.22 0 .045-.023.08-.051.08-.028 0-.051.046-.051.1 0 .056-.023.1-.051.1-.028 0-.051.046-.051.1 0 .056-.023.1-.051.1-.028 0-.051.068-.051.151 0 .083-.023.15-.051.15-.028 0-.051.068-.051.15 0 .083-.023.15-.051.15-.028 0-.051.113-.051.25 0 .138-.023.25-.051.25-.034 0-.051 2.887-.051 8.558 0 5.671.017 8.557.051 8.557.028 0 .051.113.051.25 0 .138.023.25.051.25.028 0 .051.068.051.15 0 .083.023.15.051.15.028 0 .051.068.051.15 0 .084.023.151.051.151.028 0 .051.045.051.1 0 .055.023.1.051.1.028 0 .051.04.051.09 0 .048.046.12.102.16.056.04.102.103.102.14 0 .038.092.155.204.26.112.106.204.218.204.25 0 .072.233.301.308.301.031 0 .145.09.253.2.108.11.232.2.277.2.044 0 .08.023.08.05 0 .028.046.05.102.05.056 0 .102.023.102.05 0 .028.046.05.102.05.056 0 .102.023.102.05 0 .028.046.05.102.05.056 0 .102.023.102.05 0 .028.069.05.153.05.084 0 .153.023.153.05 0 .028.092.051.204.051.112 0 .204.022.204.05 0 .033 2.074.05 6.12.05h6.121V27.98H166.266v-5.304h9.894v-4.704h-9.894v-4.704h5.18c4.422 0 5.191-.01 5.254-.072.108-.106.108-4.554 0-4.66-.063-.062-.893-.072-5.713-.072-3.725 0-5.639.017-5.639.05Zm18.361 12.21v12.26h4.794v-4.003c0-2.636.017-4.003.051-4.003a.05.05 0 0 1 .051.05c0 .027.046.05.102.05.056 0 .102.022.102.05 0 .027.046.05.102.05.056 0 .102.022.102.05 0 .027.046.05.102.05.056 0 .102.022.102.05 0 .027.046.05.102.05.056 0 .102.022.102.05 0 .027.069.05.153.05.084 0 .153.022.153.05 0 .028.046.05.102.05.056 0 .102.023.102.05 0 .028.069.05.153.05.084 0 .153.023.153.05 0 .028.092.05.204.05.112 0 .204.023.204.05 0 .028.092.05.204.05.112 0 .204.023.204.05 0 .028.115.05.255.05s.255.023.255.05c0 .03.17.05.408.05.238 0 .408.021.408.05 0 .031.255.05.663.05.408 0 .663-.019.663-.05 0-.029.17-.05.408-.05.238 0 .408-.02.408-.05 0-.027.115-.05.255-.05s.255-.022.255-.05c0-.027.092-.05.204-.05.112 0 .204-.022.204-.05 0-.027.092-.05.204-.05.112 0 .204-.022.204-.05 0-.027.069-.05.153-.05.084 0 .153-.022.153-.05 0-.027.046-.05.102-.05.056 0 .102-.022.102-.05 0-.027.069-.05.153-.05.084 0 .153-.023.153-.05 0-.028.046-.05.102-.05.056 0 .102-.023.102-.05 0-.028.046-.05.102-.05.056 0 .102-.023.102-.05 0-.028.046-.05.102-.05.056 0 .102-.023.102-.05 0-.028.046-.05.102-.05.056 0 .102-.023.102-.05 0-.028.041-.05.091-.05.05 0 .124-.045.164-.1.041-.055.109-.1.153-.1s.113-.046.153-.1c.041-.056.105-.1.144-.1.039 0 .135-.068.213-.15.079-.083.168-.151.2-.151.073 0 1.636-1.534 1.636-1.606 0-.03.069-.118.153-.195.084-.078.153-.177.153-.22 0-.045.023-.08.051-.08.028 0 .051-.04.051-.09 0-.049.046-.121.102-.161.056-.04.102-.112.102-.161 0-.05.023-.09.051-.09.028 0 .051-.044.051-.1 0-.054.023-.1.051-.1.028 0 .051-.044.051-.1 0-.054.023-.1.051-.1.028 0 .051-.044.051-.1 0-.055.023-.1.051-.1.028 0 .051-.045.051-.1 0-.055.023-.1.051-.1.028 0 .051-.045.051-.1 0-.055.023-.1.051-.1.028 0 .051-.068.051-.15 0-.083.023-.15.051-.15.028 0 .051-.068.051-.15 0-.083.023-.15.051-.15.028 0 .051-.068.051-.15 0-.083.023-.15.051-.15.028 0 .051-.068.051-.15 0-.083.023-.151.051-.151.028 0 .051-.113.051-.25 0-.138.023-.25.051-.25.029 0 .051-.15.051-.35 0-.2.022-.351.051-.351.033 0 .051-.367.051-1 0-.635-.018-1.002-.051-1.002-.028 0-.051-.133-.051-.3 0-.167-.022-.3-.051-.3-.028 0-.051-.113-.051-.25 0-.138-.023-.25-.051-.25-.028 0-.051-.09-.051-.2 0-.11-.023-.2-.051-.2-.028 0-.051-.069-.051-.151 0-.083-.023-.15-.051-.15-.028 0-.051-.068-.051-.15 0-.083-.023-.15-.051-.15-.028 0-.051-.046-.051-.1 0-.056-.023-.1-.051-.1-.028 0-.051-.068-.051-.15 0-.083-.023-.15-.051-.15-.028 0-.051-.046-.051-.1 0-.056-.023-.101-.051-.101-.028 0-.051-.045-.051-.1 0-.055-.023-.1-.051-.1-.028 0-.051-.045-.051-.1 0-.055-.023-.1-.051-.1-.028 0-.051-.04-.051-.09 0-.048-.046-.12-.102-.16-.056-.04-.102-.108-.102-.15 0-.044-.046-.111-.102-.15-.056-.04-.102-.108-.102-.151s-.046-.11-.102-.15c-.056-.04-.102-.103-.102-.14 0-.037-.092-.155-.204-.26-.112-.106-.204-.217-.204-.247 0-.072-.951-1.005-1.023-1.005-.031 0-.144-.09-.252-.2-.108-.11-.223-.2-.256-.2s-.124-.067-.203-.15c-.078-.082-.179-.15-.224-.15-.045 0-.082-.023-.082-.05 0-.028-.041-.05-.091-.05-.05 0-.123-.045-.164-.1-.04-.055-.114-.1-.164-.1s-.091-.023-.091-.05c0-.028-.046-.05-.102-.05-.056 0-.102-.023-.102-.05 0-.028-.046-.05-.102-.05-.056 0-.102-.023-.102-.05 0-.028-.046-.05-.102-.05-.056 0-.102-.023-.102-.05 0-.028-.069-.05-.153-.05-.084 0-.153-.023-.153-.05 0-.028-.046-.05-.102-.05-.056 0-.102-.023-.102-.05 0-.028-.069-.05-.153-.05-.084 0-.153-.023-.153-.05 0-.028-.069-.05-.153-.05-.084 0-.153-.023-.153-.05 0-.028-.092-.051-.204-.051-.112 0-.204-.022-.204-.05 0-.028-.092-.05-.204-.05-.112 0-.204-.023-.204-.05 0-.028-.136-.05-.306-.05-.17 0-.306-.022-.306-.05 0-.033-1.785-.05-5.253-.05h-5.253v12.26Zm46.513-.15v12.11h2.426c2.538 0 2.572-.003 2.572-.21 0-.038.046-.1.102-.14.056-.04.102-.108.102-.15 0-.043.046-.11.102-.15.056-.04.102-.108.102-.15 0-.044.046-.111.102-.15.056-.04.102-.108.102-.15 0-.044.046-.111.102-.151.056-.04.102-.107.102-.15s.046-.11.102-.15c.056-.04.102-.107.102-.15s.046-.11.102-.15c.056-.04.102-.108.102-.15 0-.043.046-.111.102-.15.056-.04.102-.108.102-.15 0-.044.046-.111.102-.151.056-.04.102-.107.102-.15s.046-.11.102-.15c.056-.04.102-.107.102-.15s.046-.11.102-.15c.056-.04.102-.108.102-.15 0-.043.046-.111.102-.15.056-.04.102-.108.102-.15 0-.044.046-.111.102-.151.056-.04.102-.107.102-.15s.046-.11.102-.15c.056-.04.102-.108.102-.15 0-.043.046-.11.102-.15.056-.04.102-.108.102-.15 0-.043.046-.111.102-.15.056-.04.102-.108.102-.15 0-.044.046-.111.102-.151.056-.04.102-.107.102-.15s.046-.11.102-.15c.056-.04.102-.108.102-.15 0-.043.046-.11.102-.15.056-.04.102-.108.102-.15 0-.043.046-.111.102-.15.056-.04.102-.108.102-.15 0-.044.046-.111.102-.151.056-.04.102-.107.102-.15s.046-.11.102-.15c.056-.04.102-.108.102-.15 0-.043.046-.11.102-.15.056-.04.102-.108.102-.15 0-.044.046-.111.102-.15.056-.04.102-.108.102-.15 0-.044.046-.111.102-.151.056-.04.102-.107.102-.15s.046-.11.102-.15c.057-.04.102-.108.102-.15 0-.043.046-.11.102-.15.056-.04.102-.108.102-.15 0-.044.046-.111.102-.15.056-.04.102-.108.102-.15 0-.044.046-.111.102-.151.057-.04.102-.107.102-.15s.046-.11.102-.15c.057-.04.102-.107.102-.15s.046-.11.102-.15c.057-.04.102-.108.102-.15 0-.044.046-.111.102-.15.057-.04.102-.108.102-.15 0-.044.046-.111.102-.151.057-.04.102-.107.102-.15s.046-.11.102-.15c.057-.04.102-.107.102-.15s.046-.11.102-.15c.057-.04.102-.108.102-.15 0-.044.046-.111.102-.15.057-.04.102-.108.102-.15 0-.044.046-.111.102-.151.057-.04.102-.107.102-.15s.046-.11.102-.15c.057-.04.102-.107.102-.15s.046-.11.102-.15c.057-.04.102-.113.102-.162s.023-.089.051-.089c.029 0 .051-.04.051-.089 0-.049.046-.121.102-.161.057-.04.102-.107.102-.15s.046-.11.102-.15c.057-.04.102-.107.102-.15s.046-.11.103-.15c.056-.04.101-.108.101-.15 0-.044.046-.111.102-.15.057-.04.102-.108.102-.15 0-.044.046-.111.102-.151.057-.04.102-.107.102-.15s.046-.11.103-.15c.056-.04.102-.107.102-.15s.045-.11.102-.15c.056-.04.102-.108.102-.15 0-.043.045-.111.102-.15.056-.04.102-.108.102-.15 0-.044.045-.111.102-.151.056-.04.102-.107.102-.15s.045-.11.102-.15c.056-.04.102-.107.102-.15s.045-.11.102-.15c.056-.04.102-.108.102-.15 0-.043.045-.111.102-.15.056-.04.102-.108.102-.15 0-.044.045-.111.102-.151.056-.04.102-.107.102-.15s.045-.11.102-.15c.056-.04.102-.112.102-.161 0-.05.023-.09.051-.09.033 0 .051 2.72.051 8.057v8.057h4.794V8.464h-2.375c-2.485 0-2.521.003-2.521.21 0 .038-.046.1-.102.14-.057.04-.102.107-.102.15s-.046.11-.102.15c-.057.04-.102.108-.102.15 0 .043-.046.11-.102.15-.057.04-.102.108-.102.15 0 .044-.046.111-.102.15-.057.04-.102.108-.102.15 0 .044-.046.111-.102.151-.057.04-.102.107-.102.15s-.046.11-.102.15c-.057.04-.102.108-.102.15 0 .043-.046.11-.102.15-.057.04-.102.108-.102.15 0 .044-.046.111-.102.15-.057.04-.102.108-.102.151s-.046.11-.102.15c-.057.04-.103.107-.103.15s-.045.11-.102.15c-.056.04-.102.108-.102.15 0 .043-.045.11-.102.15-.056.04-.102.108-.102.15 0 .044-.045.111-.101.15-.057.04-.103.108-.103.151s-.045.11-.102.15c-.056.04-.102.107-.102.15s-.045.11-.102.15c-.056.04-.102.108-.102.15 0 .043-.045.11-.102.15-.056.04-.102.108-.102.15 0 .044-.045.111-.102.15-.056.04-.102.108-.102.151s-.045.11-.102.15c-.056.04-.102.107-.102.15s-.045.11-.102.15c-.056.04-.102.108-.102.15 0 .043-.045.11-.102.15-.056.04-.102.108-.102.15 0 .044-.045.111-.102.15-.056.04-.102.108-.102.151s-.045.11-.102.15c-.056.04-.102.107-.102.15s-.045.11-.102.15c-.056.04-.102.108-.102.15 0 .043-.045.11-.102.15-.056.04-.102.108-.102.15 0 .044-.045.111-.102.15-.056.04-.102.108-.102.151s-.045.11-.102.15c-.056.04-.102.107-.102.15s-.045.11-.102.15c-.056.04-.102.108-.102.15 0 .043-.046.11-.102.15-.056.04-.102.108-.102.15 0 .044-.045.111-.102.15-.056.04-.102.108-.102.151s-.045.11-.102.15c-.056.04-.102.107-.102.15s-.046.11-.102.15c-.056.04-.102.108-.102.15 0 .043-.046.11-.102.15-.056.04-.102.108-.102.15 0 .044-.046.111-.102.15-.056.04-.102.108-.102.151s-.046.11-.102.15c-.056.04-.102.107-.102.15s-.046.11-.102.15c-.056.04-.102.113-.102.162s-.023.089-.051.089c-.028 0-.051.04-.051.089 0 .049-.046.121-.102.16-.056.04-.102.108-.102.15 0 .044-.046.111-.102.151-.056.04-.102.107-.102.15s-.046.11-.102.15c-.056.04-.102.107-.102.15s-.046.11-.102.15c-.056.04-.102.108-.102.15 0 .044-.046.111-.102.15-.056.04-.102.108-.102.15 0 .044-.046.111-.102.151-.056.04-.102.107-.102.15s-.046.11-.102.15c-.056.04-.102.107-.102.15s-.046.11-.102.15c-.056.04-.102.108-.102.15 0 .043-.046.111-.102.15-.056.04-.102.108-.102.15 0 .044-.046.111-.102.151-.056.04-.102.107-.102.15s-.046.11-.102.15c-.056.04-.102.107-.102.15s-.046.11-.102.15c-.056.04-.102.108-.102.15 0 .044-.046.111-.102.15-.056.04-.102.108-.102.15 0 .044-.046.111-.102.151-.056.04-.102.107-.102.15s-.046.11-.102.15c-.056.04-.102.108-.102.15 0 .043-.046.11-.102.15-.056.04-.102.108-.102.15 0 .044-.046.111-.102.15-.056.04-.102.108-.102.15 0 .044-.046.111-.102.151-.056.04-.102.112-.102.161 0 .056-.038.09-.102.09-.101 0-.102-.034-.102-8.058V8.464h-4.794v12.11Zm-13.464-8.057c0 .028.092.05.204.05.112 0 .204.023.204.05 0 .028.069.05.153.05.084 0 .153.023.153.05 0 .028.046.05.102.05.056 0 .102.023.102.05 0 .028.036.05.081.05.045 0 .146.068.225.15.078.083.169.15.2.15.075 0 .412.33.412.404 0 .031.069.12.153.197.084.077.153.176.153.22 0 .045.023.08.051.08.028 0 .051.046.051.1 0 .056.023.1.051.1.028 0 .051.068.051.15 0 .083.023.15.051.15.028 0 .051.091.051.201 0 .11.023.2.051.2.03 0 .051.184.051.45 0 .268-.021.451-.051.451-.028 0-.051.09-.051.2 0 .11-.023.2-.051.2-.028 0-.051.068-.051.15 0 .083-.023.15-.051.15-.028 0-.051.046-.051.1 0 .056-.023.1-.051.1-.028 0-.051.04-.051.09 0 .049-.046.121-.102.16-.056.04-.102.102-.102.138 0 .091-.645.714-.739.714-.042 0-.077.022-.077.05 0 .027-.041.05-.091.05-.05 0-.124.045-.164.1a.28.28 0 0 1-.216.1c-.077 0-.141.022-.141.05 0 .027-.069.05-.153.05-.084 0-.153.023-.153.05 0 .033-1.003.05-2.907.05h-2.907V12.467h2.805c1.836 0 2.805.017 2.805.05Zm-23.155.4c0 .028.136.05.306.05.17 0 .306.023.306.05 0 .028.069.05.153.05.084 0 .153.023.153.05 0 .028.069.05.153.05.084 0 .153.023.153.05 0 .028.046.05.102.05.056 0 .102.023.102.05 0 .028.041.05.091.05.05 0 .124.046.164.101.041.055.109.1.153.1s.113.045.153.1c.041.055.103.1.14.1.086 0 .931.83.931.914 0 .036.046.097.102.137.056.04.102.107.102.15s.046.11.102.15c.056.04.102.113.102.162 0 .048.023.089.051.089.028 0 .051.067.051.15 0 .082.023.15.051.15.028 0 .051.045.051.1 0 .055.023.1.051.1.028 0 .051.09.051.2 0 .11.023.2.051.2.028 0 .051.113.051.25 0 .138.023.25.051.25.031 0 .051.2.051.501 0 .3-.02.5-.051.5-.028 0-.051.134-.051.3 0 .168-.023.301-.051.301-.028 0-.051.068-.051.15 0 .083-.023.15-.051.15-.028 0-.051.068-.051.15 0 .083-.023.15-.051.15-.028 0-.051.046-.051.1 0 .056-.023.1-.051.1-.028 0-.051.046-.051.1 0 .056-.023.1-.051.1-.028 0-.051.041-.051.09 0 .049-.046.121-.102.161-.056.04-.102.103-.102.141 0 .038-.069.132-.153.21-.084.076-.153.165-.153.196 0 .073-.439.504-.514.504-.031 0-.121.068-.2.15-.079.083-.175.15-.213.15-.039 0-.103.045-.144.1-.04.055-.114.1-.164.1s-.091.023-.091.05c0 .028-.046.05-.102.05-.056 0-.102.023-.102.05 0 .028-.069.05-.153.05-.084 0-.153.023-.153.05 0 .028-.046.05-.102.05-.056 0-.102.023-.102.05 0 .028-.092.05-.204.05-.112 0-.204.023-.204.05 0 .034-.952.05-2.754.05h-2.754V12.868h2.55c1.666 0 2.55.018 2.55.05ZM9.488 21.526c0 .027.114.05.255.05.14 0 .255.022.255.05 0 .027.091.05.204.05.112 0 .204.022.204.05 0 .027.045.05.102.05.056 0 .102.022.102.05 0 .027.046.05.102.05.056 0 .102.023.102.05 0 .028.036.05.081.05.045 0 .146.068.225.15.078.083.168.15.2.15.08 0 .616.534.616.614 0 .035.046.097.102.137.056.04.102.107.102.15s.045.11.102.15c.056.04.102.112.102.161 0 .05.023.09.05.09.029 0 .052.067.052.15 0 .082.023.15.05.15.029 0 .052.067.052.15 0 .082.023.15.05.15.033 0 .052.317.052.85 0 .534-.02.851-.051.851-.028 0-.051.068-.051.15 0 .083-.023.15-.051.15-.028 0-.051.068-.051.15 0 .083-.023.15-.051.15-.028 0-.051.046-.051.1 0 .056-.023.101-.051.101-.028 0-.051.04-.051.089 0 .049-.046.122-.102.161-.056.04-.102.102-.102.137 0 .091-.85.914-.943.914-.043 0-.077.023-.077.05 0 .028-.041.05-.091.05-.05 0-.124.045-.164.1a.28.28 0 0 1-.216.1c-.078 0-.141.023-.141.05 0 .028-.046.05-.102.05-.056 0-.102.023-.102.05 0 .028-.115.05-.255.05s-.255.023-.255.05c0 .033-.731.05-2.092.05H5.51v-7.105h1.988c1.293 0 1.99.017 1.99.05Zm69.566 0c0 .027.114.05.255.05.14 0 .255.022.255.05 0 .027.069.05.153.05.084 0 .153.022.153.05 0 .027.045.05.102.05.056 0 .102.022.102.05 0 .027.046.05.102.05.056 0 .102.023.102.05 0 .028.04.05.09.05.05 0 .124.045.165.1.04.055.103.1.14.1.085 0 .829.73.829.814 0 .036.046.097.102.137.056.04.102.112.102.161 0 .05.023.09.05.09.029 0 .052.044.052.1 0 .054.023.1.05.1.029 0 .052.044.052.1 0 .055.023.1.05.1.029 0 .052.067.052.15 0 .082.023.15.05.15.029 0 .052.112.052.25s.023.25.05.25c.03 0 .052.184.052.45 0 .267-.021.451-.051.451-.028 0-.051.113-.051.25 0 .138-.023.25-.051.25-.028 0-.051.068-.051.15 0 .083-.023.15-.051.15-.028 0-.051.068-.051.15 0 .083-.023.15-.051.15-.028 0-.051.041-.051.09 0 .049-.046.122-.102.161-.056.04-.102.103-.102.141 0 .038-.07.132-.153.21-.084.076-.153.165-.153.197 0 .074-.233.303-.309.303-.032 0-.123.067-.201.15-.079.083-.175.15-.213.15-.04 0-.104.045-.144.1-.04.055-.115.1-.165.1s-.09.023-.09.05c0 .028-.046.05-.102.05-.056 0-.102.023-.102.05 0 .028-.07.05-.153.05-.085 0-.153.023-.153.05 0 .028-.092.05-.204.05-.113 0-.204.023-.204.05 0 .033-.748.05-2.142.05h-2.142v-7.105h2.04c1.326 0 2.04.017 2.04.05Zm138.724 1.2c0 .028.114.05.255.05.14 0 .255.023.255.05 0 .028.069.05.153.05.084 0 .153.023.153.05 0 .028.046.05.102.05.056 0 .102.023.102.051 0 .027.046.05.102.05.056 0 .102.023.102.05 0 .028.034.05.077.05.101 0 .943.826.943.925 0 .042.023.076.051.076.028 0 .051.045.051.1 0 .055.023.1.051.1.028 0 .051.045.051.1 0 .055.023.1.051.1.028 0 .051.068.051.15 0 .083.023.15.051.15.028 0 .051.113.051.25 0 .138.023.25.051.25.028 0 .051.114.051.251 0 .138-.023.25-.051.25-.029 0-.051.134-.051.3 0 .167-.023.3-.051.3-.028 0-.051.068-.051.151 0 .082-.023.15-.051.15-.028 0-.051.045-.051.1 0 .055-.023.1-.051.1-.028 0-.051.04-.051.09 0 .048-.046.12-.102.16-.056.04-.102.102-.102.137 0 .085-.641.714-.728.714-.036 0-.099.045-.139.1-.041.055-.115.1-.165.1-.049 0-.09.023-.09.05 0 .028-.069.05-.153.05-.084 0-.153.023-.153.05 0 .028-.069.05-.153.05-.084 0-.153.023-.153.05 0 .033-1.207.05-3.519.05h-3.519v-5.904h3.315c2.176 0 3.315.017 3.315.05Z" fill="#000"/></svg>