<svg width="26" height="26" fill="none" xmlns="http://www.w3.org/2000/svg"><path fill-rule="evenodd" clip-rule="evenodd" d="M0 6c0-3.31371 2.68629-6 6-6s6 2.68629 6 6-2.68629 6-6 6-6-2.68629-6-6Zm6-2c-1.10457 0-2 .89543-2 2s.89543 2 2 2 2-.89543 2-2-.89543-2-2-2ZM0 20c0-3.3137 2.68629-6 6-6s6 2.6863 6 6-2.68629 6-6 6-6-2.6863-6-6Zm6-2c-1.10457 0-2 .8954-2 2s.89543 2 2 2 2-.8954 2-2-.89543-2-2-2ZM14 6c0-3.31371 2.6863-6 6-6s6 2.68629 6 6-2.6863 6-6 6-6-2.68629-6-6Zm6-2c-1.1046 0-2 .89543-2 2s.8954 2 2 2 2-.89543 2-2-.8954-2-2-2ZM14 20c0-3.3137 2.6863-6 6-6s6 2.6863 6 6-2.6863 6-6 6-6-2.6863-6-6Zm6-2c-1.1046 0-2 .8954-2 2s.8954 2 2 2 2-.8954 2-2-.8954-2-2-2Z" fill="#000"/></svg>