<svg width="14" height="20" viewBox="0 0 14 20" fill="none" xmlns="http://www.w3.org/2000/svg">
<rect y="18" width="14" height="2" fill="#FFA300"/>
<path fill-rule="evenodd" clip-rule="evenodd" d="M8.5508 15.1459C10.3566 12.7253 13 9.1821 13 6.19726C13 2.77461 10.3137 0 7 0C3.68629 0 1 2.77461 1 6.19726C1 9.1821 3.64337 12.7253 5.4492 15.1459C6.0001 15.8843 6.47305 16.5183 6.76923 17H7.23077C7.52695 16.5183 7.9999 15.8843 8.5508 15.1459ZM7 3C5.34315 3 4 4.34315 4 6C4 7.65685 5.34315 9 7 9C8.65685 9 10 7.65685 10 6C10 4.34315 8.65685 3 7 3Z" fill="#FFA300"/>
</svg>
